<?xml version="1.0" standalone="no"?>
<!DOCTYPE svg PUBLIC "-//W3C//DTD SVG 1.1//EN" "http://www.w3.org/Graphics/SVG/1.1/DTD/svg11.dtd" >
<svg xmlns="http://www.w3.org/2000/svg">
<metadata>Generated by IcoMoon</metadata>
<defs>
<font id="icomoon" horiz-adv-x="1024">
<font-face units-per-em="1024" ascent="960" descent="-64" />
<missing-glyph horiz-adv-x="1024" />
<glyph unicode="&#x20;" horiz-adv-x="512" d="" />
<glyph unicode="&#xe600;" glyph-name="facebook-letter" d="M730.255 567.346h-138.085v90.564c0 34.011 22.542 41.94 38.418 41.94 15.841 0 97.446 0 97.446 0v149.519l-134.202 0.524c-148.977 0-182.88-111.516-182.88-182.88v-99.667h-86.157v-154.071h86.157c0-197.727 0-435.967 0-435.967h181.218c0 0 0 240.588 0 435.967h122.281l15.804 154.071z" />
<glyph unicode="&#xe601;" glyph-name="px" d="M327.578 203.52c24.627 8.909 47.514 20.48 68.454 34.97 20.992 14.438 40.806 31.13 59.392 50.278 18.586 19.098 37.683 38.861 57.242 59.341 17.715-20.48 36.352-40.243 55.91-59.341 19.558-19.149 40.294-35.84 62.157-50.278 21.914-14.438 45.414-26.061 70.605-34.97 25.088-8.858 52.070-13.261 80.998-13.261 37.222 0 71.014 6.758 101.222 20.275 30.259 13.517 55.654 32.102 76.134 55.91 20.429 23.757 36.352 51.456 47.514 83.098 11.213 31.59 16.794 65.587 16.794 101.939s-5.581 69.837-16.794 100.557c-11.162 30.822-27.034 57.498-47.514 80.333s-45.67 40.704-75.418 53.76c-29.85 13.107-63.386 19.61-100.659 19.61-29.747 0-57.498-4.71-83.098-13.978-25.6-9.318-49.357-21.658-71.219-37.018-21.914-15.36-42.394-33.28-61.491-53.811-19.046-20.429-37.478-41.472-55.194-62.874-18.637 22.374-37.478 43.52-56.525 63.59-19.098 20.019-39.578 37.734-61.491 53.094s-45.619 27.699-71.219 37.018c-25.6 9.318-53.811 13.978-84.48 13.978-37.274 0-70.912-6.81-100.608-20.275-29.901-13.517-54.938-31.59-75.469-54.477-20.48-22.835-36.147-49.869-46.797-81.050-10.701-31.181-16.026-64.922-16.026-101.171 0-36.352 5.53-70.349 16.691-101.99 11.213-31.693 27.494-58.88 48.896-81.766 21.453-22.835 47.053-41.011 76.8-54.477 29.901-13.517 63.795-20.275 102.042-20.275 30.72 0 58.47 4.403 83.149 13.261zM161.997 363.52c-19.61 21.402-29.338 48.896-29.338 82.381 0 30.72 9.523 58.47 28.723 83.149 19.046 24.576 44.851 37.018 77.568 37.018 17.664 0 35.277-3.994 52.992-11.878s34.714-17.92 51.046-30.054c16.23-12.134 31.846-25.395 46.694-39.782 14.899-14.49 27.955-27.75 39.168-39.834-11.213-13.056-23.757-26.368-37.734-39.731-13.978-13.619-28.774-25.702-44.646-36.352-15.923-10.752-32.614-19.558-50.33-26.573-17.664-7.014-35.379-10.496-53.043-10.496-34.56 0-61.542 10.701-81.101 32.154zM729.907 341.094c-17.203 6.502-33.792 15.155-49.562 25.856-15.923 10.701-30.874 22.784-44.749 36.301-13.978 13.517-27.034 27.238-39.117 41.267 11.162 12.083 23.706 25.344 37.683 39.834 13.978 14.387 28.672 27.648 43.981 39.731 15.36 12.134 31.693 22.17 48.896 30.054 17.254 7.885 35.226 11.878 53.811 11.878 34.458 0 61.645-11.622 81.715-34.97 20.070-23.245 30.054-51.2 30.054-83.866 0-32.614-9.37-60.006-27.955-82.33-18.637-22.426-45.158-33.536-79.616-33.536-19.507 0.051-37.939 3.277-55.142 9.779z" />
<glyph unicode="&#xe602;" glyph-name="px-with-circle" d="M427.469 486.042c-8.141 6.093-16.64 11.11-25.446 15.002-8.909 3.994-17.715 5.99-26.573 5.99-16.333 0-29.235-6.195-38.758-18.483-9.626-12.39-14.387-26.266-14.387-41.574 0-16.742 4.915-30.515 14.694-41.216s23.296-16.077 40.499-16.077c8.858 0 17.664 1.792 26.573 5.325 8.858 3.482 17.254 7.885 25.139 13.261 7.936 5.325 15.411 11.366 22.374 18.125 7.014 6.707 13.261 13.414 18.842 19.917-5.581 5.939-12.134 12.595-19.558 19.814s-15.258 13.875-23.398 19.917zM646.502 507.034c-9.318 0-18.33-1.997-26.88-5.99-8.602-3.891-16.742-8.909-24.474-15.002-7.68-6.042-15.002-12.698-22.016-19.917s-13.363-13.875-18.842-19.917c6.042-7.014 12.544-13.926 19.558-20.582 7.014-6.81 14.387-12.8 22.426-18.176 7.834-5.325 16.077-9.626 24.73-12.902 8.602-3.277 17.869-4.915 27.597-4.915 17.254 0 30.464 5.581 39.782 16.794 9.37 11.213 13.926 24.883 13.926 41.216 0 16.282-5.069 30.31-15.002 41.882-9.984 11.674-23.603 17.51-40.806 17.51zM512 939.52c-271.462 0-491.52-220.058-491.52-491.52s220.058-491.52 491.52-491.52 491.52 220.058 491.52 491.52-220.058 491.52-491.52 491.52zM759.552 398.746c-5.53-15.821-13.466-29.696-23.706-41.523-10.24-11.93-22.938-21.197-38.042-27.955-15.155-6.758-32-10.086-50.637-10.086-14.438 0-27.955 2.202-40.499 6.605-12.595 4.454-24.371 10.24-35.277 17.51-10.957 7.219-21.299 15.565-31.13 25.088-9.728 9.626-19.046 19.456-27.955 29.696-9.728-10.24-19.302-20.122-28.621-29.696-9.37-9.523-19.2-17.92-29.747-25.088-10.445-7.27-21.862-13.056-34.202-17.51-12.288-4.403-26.163-6.605-41.574-6.605-19.098 0-36.045 3.328-50.995 10.086-14.899 6.758-27.75 15.821-38.4 27.238-10.701 11.469-18.842 25.037-24.474 40.858-5.478 15.821-8.294 32.819-8.294 50.944 0 18.176 2.662 35.021 8.038 50.637s13.21 29.082 23.398 40.55c10.24 11.469 22.784 20.429 37.734 27.238 14.848 6.707 31.59 10.086 50.278 10.086 15.36 0 29.44-2.304 42.24-7.014 12.8-4.608 24.627-10.803 35.584-18.483 11.008-7.629 21.248-16.486 30.822-26.522s18.944-20.582 28.262-31.795c8.909 10.701 18.125 21.197 27.597 31.386 9.626 10.291 19.814 19.251 30.822 26.88 10.906 7.68 22.784 13.875 35.584 18.483 12.8 4.71 26.675 7.014 41.472 7.014 18.688 0 35.43-3.174 50.381-9.779 14.899-6.502 27.443-15.411 37.683-26.829 10.24-11.469 18.125-24.73 23.706-40.141 5.632-15.411 8.397-32.102 8.397-50.278 0-18.227-2.765-35.226-8.448-50.995z" />
<glyph unicode="&#xe603;" glyph-name="app-store" d="M899.278 250.25c-21.163-46.875-31.313-67.847-58.562-109.294-38.016-57.875-91.622-129.947-158.047-130.562-59.003-0.559-74.153 38.397-154.263 37.956-80.078-0.441-96.816-38.663-155.847-38.103-66.397 0.616-117.203 65.706-155.247 123.581-106.347 161.831-117.463 351.791-51.875 452.756 46.625 71.747 120.147 113.753 189.288 113.753 70.4 0 114.663-38.603 172.859-38.603 56.466 0 90.875 38.663 172.244 38.663 61.512 0 126.691-33.5 173.141-91.372-152.181-83.394-127.453-300.697 26.309-358.775zM638.081 765.047c29.569 37.956 52.037 91.55 43.884 146.312-48.312-3.344-104.809-34.056-137.794-74.125-29.934-36.344-54.662-90.256-45.041-142.703 52.741-1.616 107.3 29.887 138.95 70.516z" />
<glyph unicode="&#xe604;" glyph-name="baidu" d="M891.476 604.824c-18.366 14.493-47.309 20.502-74.892 18.703-21.316-1.359-38.959-1.772-51.431-9.349-57.167-34.667-62.309-222.873 9.322-252.624 152.265-63.258 207.685 171.545 117 243.269zM662.184 408.318c-49.345 57.269-84.029 137.294-182.426 121.646-87.384-13.898-98.502-85.538-145.078-135.685-55.28-59.584-158.974-103.289-182.478-196.488-17.136-68.024 5.936-148.090 46.772-177.8 80.188-58.242 229.055 6.381 336.879-4.667 64.547-6.606 113.903-29.276 163.72-28.078 115.843 2.728 209.391 85.474 159.117 219.879-24.618 65.839-133.163 127.673-196.506 201.193zM648.154 609.491c58.025-1.632 117.826 64.767 121.655 126.331 4.998 80.373-47.587 160.954-126.319 140.37-46.784-12.223-85.195-72.22-88.893-131.039-4.271-68.191 31.579-133.907 93.557-135.662zM423.561 628.214c60.272 8.136 85.38 80.478 74.9 163.764-8.648 68.543-45.852 135.023-126.34 112.271-110.868-31.298-93.196-295.585 51.439-276.035zM213.066 417.669c132.214 19.737 101.361 304.052-42.108 271.347-123.357-28.119-106.863-293.581 42.108-271.347z" />
<glyph unicode="&#xe605;" glyph-name="basecamp" d="M512 857.6c-239.258 0-476.16-331.827-476.16-636.006 0-70.502 232.141-183.194 476.16-183.194s476.16 112.691 476.16 183.194c0 304.179-236.902 636.006-476.16 636.006zM512.307 160.512c-266.138 0-341.658 105.882-341.658 139.366 0 65.894 109.056 229.632 148.787 229.632 36.813 0 78.95-92.723 118.477-92.723 63.539 0 131.43 202.445 183.245 202.445s235.571-265.114 235.571-345.549c0-13.875-55.501-133.171-344.422-133.171z" />
<glyph unicode="&#xe606;" glyph-name="behance" d="M413.286 483.789c0 0 96.87 7.526 96.87 125.901 0 118.528-79.258 176.179-179.712 176.179h-330.445v-661.811h330.445c0 0 201.779-6.605 201.779 195.379-0.051 0.051 8.755 164.352-118.938 164.352zM145.613 668.314h184.832c0 0 44.954 0 44.954-68.813 0-68.915-26.419-78.899-56.422-78.899h-173.363v147.712zM321.075 241.715h-175.462v176.896h184.832c0 0 66.97 0.922 66.97-90.88 0-77.414-50.022-85.453-76.339-86.016zM801.229 617.574c-244.275 0-244.070-254.31-244.070-254.31s-16.691-252.979 244.070-252.979c0 0 217.242-13.005 217.242 175.974h-111.718c0 0 3.686-71.219-101.786-71.219 0 0-111.821-7.782-111.821 115.2h328.858c0.051 0.051 36.301 287.334-220.774 287.334zM900.608 418.611h-208.589c0 0 13.619 101.99 111.718 101.99s96.87-101.99 96.87-101.99zM926.566 747.008h-261.99v-81.613h261.99v81.613z" />
<glyph unicode="&#xe607;" glyph-name="creative-cloud" d="M645.12 806.4c-100.659 0-191.488-41.626-256.614-108.493-19.661 3.994-39.987 6.093-60.826 6.093-169.677 0-307.2-137.523-307.2-307.2s137.523-307.2 307.2-307.2h317.44c197.939 0 358.4 160.461 358.4 358.4s-160.461 358.4-358.4 358.4zM327.68 154.726c-64.666 0-125.44 25.19-171.213 70.912-45.67 45.722-70.861 106.547-70.861 171.162s25.19 125.44 70.912 171.162c45.722 45.722 106.496 70.912 171.162 70.912s125.44-25.19 171.213-70.912l95.949-96c13.978-13.978 13.978-36.659 0-50.688-14.029-14.029-36.762-13.978-50.688 0l-95.949 96.051c-64.41 64.307-176.589 64.307-240.998 0-32.205-32.256-49.92-75.008-49.92-120.525s17.715-88.269 49.92-120.525c40.192-40.141 98.97-55.194 153.139-45.261 16.589-21.709 35.277-41.728 56.32-59.136-28.006-11.059-58.010-17.152-88.986-17.152zM854.477 238.643c-55.962-55.91-130.304-86.733-209.357-86.733-79.104 0-153.446 30.822-209.408 86.733l-138.701 138.701c-13.978 13.978-13.978 36.71 0 50.688s36.71 13.978 50.688 0l138.701-138.701c42.394-42.394 98.765-65.741 158.72-65.741s116.275 23.347 158.669 65.741 65.741 98.765 65.741 158.669-23.347 116.275-65.741 158.669-98.714 65.741-158.669 65.741c-44.698 0-87.398-13.056-123.802-37.222-19.507 15.821-41.062 29.133-64.051 39.885 52.992 43.93 118.221 69.069 187.904 69.069 79.053 0 153.395-30.822 209.357-86.733 55.962-55.962 86.733-130.304 86.733-209.357s-30.822-153.498-86.784-209.408z" />
<glyph unicode="&#xe608;" glyph-name="dribbble" d="M489.728 580.045c-69.53 123.597-143.923 224.41-149.35 231.834-112.179-53.043-195.891-156.416-222.054-280.934 10.547-0.205 178.278-2.202 371.405 49.101zM539.802 444.877c5.222 1.69 10.547 3.277 15.821 4.813-10.086 22.886-21.094 45.824-32.614 68.403-207.155-62.054-405.914-57.549-412.928-57.344-0.154-4.301-0.358-8.499-0.358-12.8 0-103.373 39.066-197.683 103.219-268.902l-0.256 0.307c0 0 110.080 195.277 327.117 265.523zM264.755 130.867v0.205c-2.97 2.304-6.144 4.403-9.114 6.912 5.427-4.352 9.114-7.117 9.114-7.117zM415.642 838.554c-0.358-0.102-0.768-0.205-0.768-0.205 0.307 0.102 0.717 0.102 0.717 0.102l0.051 0.102zM777.677 749.875c-70.861 62.362-163.789 100.403-265.677 100.403-32.717 0-64.41-3.994-94.822-11.315 6.144-8.192 81.664-108.493 150.426-234.701 151.654 56.781 208.947 143.974 210.074 145.613zM512-23.040c-260.096 0-470.989 210.893-470.989 470.989-0.051 260.198 210.842 471.091 470.989 471.091 260.198 0 471.040-210.893 471.040-471.091 0-260.096-210.842-470.989-471.040-470.989zM580.403 382.157c-236.083-82.278-314.061-247.706-315.648-251.085 68.301-53.299 153.907-85.299 247.194-85.299 55.706 0 108.8 11.315 157.030 31.795-5.939 35.277-29.338 158.515-85.965 305.51-0.819-0.307-1.69-0.614-2.611-0.922zM598.528 544.256c9.421-19.098 18.33-38.605 26.778-58.317 3.021-6.912 5.837-13.926 8.704-20.787 138.906 17.51 275.712-12.186 280.218-13.107-0.973 95.386-35.123 182.886-91.494 251.494-0.922-1.178-65.485-94.362-224.205-159.283zM658.483 401.664c52.787-145.203 74.189-263.27 78.285-287.283 90.317 60.979 154.522 157.696 172.39 269.824-7.987 2.56-120.627 38.246-250.675 17.459z" />
<glyph unicode="&#xe609;" glyph-name="dribbble-with-circle" d="M525.312 448.922c1.69 0.614 3.482 1.075 5.274 1.587-4.25 9.472-8.96 19.302-14.285 29.901-96.256-28.518-188.416-28.774-204.851-28.518-0.154-1.28-0.154-2.611-0.154-3.891 0-48.384 17.408-94.874 49.050-131.379 10.547 16.998 66.458 100.403 164.966 132.301zM390.298 288.614c35.277-27.034 77.414-41.318 121.702-41.318 26.47 0 52.173 5.12 76.493 15.104-3.379 19.507-15.104 78.899-42.086 149.606-108.595-38.4-149.606-110.694-156.109-123.392zM642.816 600.218c-36.403 31.283-82.79 48.486-130.816 48.486-14.541 0-29.133-1.587-43.52-4.813 10.496-14.080 42.598-58.675 72.755-113.818 65.69 25.242 95.386 61.645 101.581 70.144zM496.896 516.403c-31.13 54.886-63.539 100.096-72.448 112.179-54.63-26.47-94.822-77.107-108.186-136.090h0.87c20.787 0 94.669 1.69 179.763 23.91zM589.517 422.605c23.808-66.202 34.765-121.19 37.888-138.803 43.622 30.72 73.421 77.875 82.381 130.202-8.909 2.714-41.062 11.315-81.51 11.315-13.21 0-26.266-0.922-38.758-2.714zM512 939.52c-271.462 0-491.52-220.058-491.52-491.52s220.058-491.52 491.52-491.52 491.52 220.058 491.52 491.52-220.058 491.52-491.52 491.52zM512 207.514c-132.71 0-240.589 107.878-240.589 240.486 0 132.71 107.878 240.589 240.589 240.589 132.659 0 240.538-107.93 240.538-240.589 0-132.608-107.878-240.486-240.538-240.486zM559.206 495.411c4.454-9.216 8.602-18.278 12.39-27.187 1.178-2.918 2.458-5.786 3.635-8.704 14.182 1.69 29.338 2.509 45.158 2.509 43.725 0 80.026-6.4 92.211-8.806-1.126 43.52-16.538 85.811-43.622 119.808-8.192-10.547-41.882-49.306-109.773-77.619z" />
<glyph unicode="&#xe60a;" glyph-name="dropbox" d="M312.781 913.818l-292.301-182.016 200.243-167.885 291.277 189.082-199.219 160.819zM688.742 141.21c-5.222 0-10.394 1.69-14.592 5.222l-162.15 134.554-162.15-134.605c-4.198-3.482-9.421-5.222-14.592-5.222-4.352 0-8.704 1.178-12.493 3.686l-120.115 78.49v-46.285l309.35-194.867 309.35 194.918v46.285l-120.115-78.49c-3.789-2.509-8.141-3.686-12.493-3.686zM1003.52 731.802l-292.352 182.016-199.168-160.819 291.226-189.082 200.294 167.885zM512 381.901l180.634-149.914 288.819 188.826-178.227 143.104-291.226-182.016zM331.366 231.987l180.634 149.914-291.277 182.016-178.176-143.104 288.819-188.826z" />
<glyph unicode="&#xe60b;" glyph-name="evernote" d="M885.76 739.84c0 61.44-87.040 66.56-87.040 66.56l-209.92 15.36c0 0-5.12 56.32-46.080 76.8-40.96 15.36-87.040 10.24-117.76 10.24-35.84 0-40.96-46.080-40.96-81.92 0-40.96 0-87.040 0-112.64 0-51.2-20.48-71.68-81.92-71.68h-117.76c-30.72 0-56.32-5.12-56.32-30.72s40.96-256 92.16-307.2c30.72-30.72 220.16-51.2 261.12-51.2s25.6 117.76 35.84 117.76 25.6-66.56 87.040-81.92c61.44-15.36 148.48-10.24 153.6-56.32 5.12-61.44 10.24-133.12-25.6-138.24l-87.040-5.12c-61.44 5.12-46.080 71.68-15.36 71.68 25.6 0 40.96 0 40.96 0l5.12 71.68c0 0-138.24 15.36-143.36-76.8-5.12-87.040 10.24-122.88 20.48-133.12s30.72-25.6 199.68-25.6c220.16-10.24 133.12 680.96 133.12 742.4zM788.48 432.64c-5.12-10.24-40.96 15.36-71.68 15.36s-66.56-15.36-76.8-5.12c-10.24 10.24 5.12 102.4 66.56 102.4s92.16-102.4 81.92-112.64zM271.36 724.48c-25.6 0-148.48 0-148.48 0l179.2 174.080c0 0-5.12-143.36-5.12-153.6s-5.12-20.48-25.6-20.48z" />
<glyph unicode="&#xe60c;" glyph-name="facebook" d="M870.4 908.8h-716.8c-56.32 0-102.4-46.080-102.4-102.4v-716.8c0-56.371 46.080-102.4 102.4-102.4h358.4v358.4h-102.4v126.72h102.4v104.96c0 110.797 62.054 188.621 192.819 188.621l92.314-0.102v-133.376h-61.286c-50.893 0-70.246-38.195-70.246-73.626v-86.528h131.482l-29.082-126.669h-102.4v-358.4h204.8c56.32 0 102.4 46.029 102.4 102.4v716.8c0 56.32-46.080 102.4-102.4 102.4z" />
<glyph unicode="&#xe60d;" glyph-name="facebook-with-circle" d="M512 939.52c-271.462 0-491.52-220.058-491.52-491.52s220.058-491.52 491.52-491.52 491.52 220.058 491.52 491.52-220.058 491.52-491.52 491.52zM628.429 599.859h-73.882c-8.755 0-18.483-11.52-18.483-26.829v-53.35h92.416l-13.978-76.083h-78.438v-228.403h-87.194v228.403h-79.104v76.083h79.104v44.749c0 64.205 44.544 116.378 105.677 116.378h73.882v-80.947z" />
<glyph unicode="&#xe60e;" glyph-name="flattr" d="M286.618 522.701c0 83.814 22.221 137.114 96.717 149.094 26.010 5.12 80.179 3.277 114.637 3.277v-128c0-1.229 0.154-3.277 0.461-4.301 1.382-5.171 6.093-8.96 11.674-8.96 3.123 0 6.042 1.587 9.114 4.608l319.283 319.181h-452.045c-188.109 0-284.058-108.288-284.058-310.579v-424.294l184.218 184.422v215.552zM737.28 588.902v-215.501c0-83.814-22.221-137.216-96.717-149.094-26.010-5.12-80.179-3.328-114.586-3.328v128c0 1.126-0.205 3.174-0.461 4.301-1.434 5.12-6.144 8.909-11.674 9.011-3.174 0-6.042-1.69-9.165-4.71l-319.232-319.078 452.096-0.102c188.058 0 284.058 108.288 284.058 310.579v424.294l-184.32-184.371z" />
<glyph unicode="&#xe60f;" glyph-name="flickr" d="M256 243.2c-112.026 0-202.752 91.597-202.752 204.8s90.726 204.8 202.752 204.8c111.974 0 202.752-91.597 202.752-204.8s-90.778-204.8-202.752-204.8zM768 243.2c-112.026 0-202.752 91.597-202.752 204.8s90.726 204.8 202.752 204.8c111.974 0 202.752-91.597 202.752-204.8s-90.778-204.8-202.752-204.8z" />
<glyph unicode="&#xe610;" glyph-name="flickr-with-circle" d="M512 939.52c-271.462 0-491.52-220.058-491.52-491.52s220.058-491.52 491.52-491.52 491.52 220.058 491.52 491.52-220.058 491.52-491.52 491.52zM380.723 345.6c-56.115 0-101.478 45.824-101.478 102.4s45.414 102.4 101.478 102.4c56.013 0 101.478-45.824 101.478-102.4s-45.517-102.4-101.478-102.4zM643.328 345.6c-56.064 0-101.53 45.824-101.53 102.4s45.466 102.4 101.53 102.4c56.115 0 101.478-45.824 101.478-102.4s-45.414-102.4-101.478-102.4z" />
<glyph unicode="&#xe611;" glyph-name="foursquare" d="M251.904 908.8c-26.010 0-47.104-21.094-47.104-47.104v-845.619c0-32 39.168-47.411 61.030-24.064l228.915 245.248c3.482 3.789 8.346 5.939 13.517 5.939h165.734c24.883 0 46.336 17.562 51.251 41.984l108.083 538.317c8.858 44.134-24.883 85.299-69.888 85.299h-511.539zM452.506 335.872l-145.306-170.854v623.821c0 9.677 7.885 17.562 17.562 17.562h365.568c17.51 0 30.618-16.026 27.136-33.178l-21.146-105.216c-1.741-8.858-9.523-15.206-18.534-15.206h-189.952c-14.95 0-27.034-12.083-27.034-27.034v-62.464c0-7.117 5.786-12.902 12.954-12.902h168.653c15.667 0 27.443-14.336 24.371-29.747l-31.437-156.57c-2.202-10.752-11.674-18.483-22.63-18.483h-139.11c-8.141 0-15.821-3.533-21.094-9.728z" />
<glyph unicode="&#xe612;" glyph-name="github" d="M674.816 380.979c-36.762 0-66.56-41.318-66.56-92.109 0-50.893 29.798-92.211 66.56-92.211s66.56 41.318 66.56 92.211c-0.051 50.79-29.798 92.109-66.56 92.109zM906.547 620.749c7.629 18.688 7.936 124.877-32.512 226.611 0 0-92.723-10.189-233.011-106.496-29.44 8.192-79.258 12.186-128.973 12.186-49.818 0-99.584-3.994-129.024-12.186-140.339 96.307-233.062 106.496-233.062 106.496-40.397-101.734-39.987-207.923-32.461-226.611-47.514-51.61-76.544-113.613-76.544-198.195 0-367.923 305.306-373.811 382.31-373.811 17.51 0 52.122-0.102 88.781-0.102 36.608 0 71.27 0.102 88.678 0.102 77.107 0 382.31 5.888 382.31 373.811 0 84.582-28.979 146.586-76.493 198.195zM513.434 93.952h-2.867c-193.075 0-343.501 22.989-343.501 210.688 0 45.005 15.872 86.682 53.606 121.293 62.822 57.702 169.216 27.187 289.894 27.187 0.512 0 1.024 0 1.485 0 0.512 0 0.922 0 1.382 0 120.678 0 227.123 30.515 289.997-27.187 37.632-34.611 53.504-76.288 53.504-121.293 0-187.699-150.374-210.688-343.501-210.688zM349.235 380.979c-36.762 0-66.56-41.318-66.56-92.109 0-50.893 29.798-92.211 66.56-92.211 36.813 0 66.611 41.318 66.611 92.211 0 50.79-29.798 92.109-66.611 92.109z" />
<glyph unicode="&#xe613;" glyph-name="github-with-circle" d="M512.768 450.611c0 0-0.512 0-0.768 0h-0.768c-60.979 0-114.688 15.514-146.483-13.722-18.995-17.51-26.982-38.605-26.982-61.286 0-94.822 75.93-106.496 173.517-106.496h1.485c97.536 0 173.517 11.725 173.517 106.496 0 22.682-7.987 43.827-26.982 61.286-31.846 29.235-85.555 13.722-146.534 13.722zM429.722 321.024c-18.586 0-33.587 20.89-33.587 46.592s15.002 46.49 33.587 46.49c18.586 0 33.638-20.787 33.638-46.49 0.051-25.702-15.002-46.592-33.638-46.592zM594.227 321.024c-18.586 0-33.638 20.89-33.638 46.592s15.053 46.49 33.638 46.49c18.534 0 33.587-20.787 33.587-46.49 0.051-25.702-15.002-46.592-33.587-46.592zM512 939.52c-271.462 0-491.52-220.058-491.52-491.52s220.058-491.52 491.52-491.52 491.52 220.058 491.52 491.52-220.058 491.52-491.52 491.52zM556.851 246.323c-8.806 0-26.317 0-44.851-0.102-18.534 0.102-36.045 0.102-44.851 0.102-38.912 0-193.126 3.021-193.126 188.877 0 42.701 14.643 73.984 38.656 100.096-3.789 9.421-3.994 63.078 16.384 114.483 0 0 46.899-5.12 117.811-53.811 14.797 4.147 39.987 6.246 65.126 6.246s50.278-2.099 65.178-6.195c70.912 48.691 117.811 53.811 117.811 53.811 20.378-51.405 20.224-105.114 16.384-114.483 24.013-26.112 38.656-57.395 38.656-100.096-0.051-185.958-154.266-188.928-193.178-188.928z" />
<glyph unicode="&#xe614;" glyph-name="google" d="M101.837 673.843c0-76.493 25.549-131.686 75.878-164.096 41.267-26.624 89.088-30.618 113.971-30.618 6.042 0 10.906 0.307 14.285 0.512 0 0-7.885-51.405 30.208-102.195h-1.741c-65.997 0-281.242-13.773-281.242-190.822 0-180.019 197.683-189.184 237.363-189.184 3.123 0 4.966 0.102 4.966 0.102 0.41 0 3.226-0.102 8.090-0.102 25.446 0 91.238 3.174 152.32 32.922 79.258 38.4 119.45 105.421 119.45 198.912 0 90.317-61.235 144.077-105.933 183.398-27.29 24.013-50.893 44.698-50.893 64.819 0 20.48 17.254 35.891 39.014 55.398 35.277 31.488 68.557 76.39 68.557 161.28 0 74.598-9.677 124.723-69.325 156.518 6.195 3.174 28.211 5.478 39.066 7.014 32.307 4.403 79.565 9.421 79.565 35.789v5.069h-235.469c-2.355-0.102-238.131-8.806-238.131-224.717zM481.946 212.378c4.506-71.987-57.088-125.082-149.606-131.789-93.952-6.912-171.264 35.379-175.77 107.315-2.202 34.611 13.005 68.403 42.752 95.386 30.157 27.29 71.578 44.186 116.634 47.514 5.325 0.307 10.598 0.614 15.872 0.614 86.989-0.051 145.869-51.149 150.118-119.040zM420.454 723.149c23.091-81.306-11.776-166.195-67.379-181.914-6.4-1.792-12.954-2.662-19.661-2.662-50.893 0-101.325 51.507-120.064 122.522-10.445 39.731-9.574 74.65 2.406 108.134 11.725 33.024 32.922 55.194 59.546 62.72 6.4 1.792 13.005 2.714 19.712 2.714 61.44 0 100.966-25.498 125.44-111.514zM819.2 550.4v153.6h-102.4v-153.6h-153.6v-102.4h153.6v-153.6h102.4v153.6h153.6v102.4h-153.6z" />
<glyph unicode="&#xe615;" glyph-name="google-with-circle" d="M512 939.52c-271.462 0-491.52-220.058-491.52-491.52s220.058-491.52 491.52-491.52 491.52 220.058 491.52 491.52-220.058 491.52-491.52 491.52zM483.686 237.005c-30.874-15.002-64.102-16.589-76.954-16.589-2.458 0-3.84 0-3.84 0s-1.178 0-2.765 0c-20.070 0-119.962 4.608-119.962 95.59 0 89.395 108.8 96.41 142.131 96.41h0.87c-19.251 25.702-15.258 51.61-15.258 51.61-1.69-0.102-4.147-0.205-7.168-0.205-12.544 0-36.762 1.997-57.549 15.411-25.498 16.384-38.4 44.288-38.4 82.893 0 109.107 119.142 113.51 120.32 113.613h118.989v-2.611c0-13.312-23.91-15.923-40.192-18.125-5.53-0.819-16.64-1.894-19.763-3.482 30.157-16.128 35.021-41.421 35.021-79.104 0-42.906-16.794-65.587-34.611-81.51-11.059-9.882-19.712-17.613-19.712-28.006 0-10.189 11.878-20.582 25.702-32.717 22.579-19.917 53.555-47.002 53.555-92.723 0-47.258-20.326-81.050-60.416-100.454zM742.4 448h-76.8v-76.8h-51.2v76.8h-76.8v51.2h76.8v76.8h51.2v-76.8h76.8v-51.2zM421.018 389.12c-2.662 0-5.325-0.102-8.038-0.307-22.733-1.69-43.725-10.189-58.88-24.013-15.053-13.619-22.733-30.822-21.658-48.179 2.304-36.403 41.37-57.702 88.832-54.323 46.694 3.379 77.824 30.31 75.571 66.714-2.15 34.202-31.898 60.109-75.827 60.109zM465.766 587.008c-12.39 43.52-32.358 56.422-63.386 56.422-3.328 0-6.707-0.512-9.933-1.382-13.466-3.84-24.166-15.053-30.106-31.744-6.093-16.896-6.451-34.509-1.229-54.579 9.472-35.891 34.97-61.901 60.672-61.901 3.379 0 6.758 0.41 9.933 1.382 28.109 7.885 45.722 50.79 34.048 91.802z" />
<glyph unicode="&#xe616;" glyph-name="google-drive" d="M418.56 294.4l-170.189-307.2h605.389l170.24 307.2h-605.44zM300.288 842.291l-300.288-543.488 172.646-311.501 300.339 543.488-172.698 311.501zM995.584 345.6l-312.115 563.2h-345.344l311.706-563.2h345.754z" />
<glyph unicode="&#xe617;" glyph-name="google-hangouts" d="M512 960c-243.2 0-440.32-194.867-440.32-435.2s197.12-435.2 440.32-435.2v-153.6c172.442 85.606 440.32 271.616 440.32 588.8 0 240.333-197.12 435.2-440.32 435.2zM460.8 461.261c0-67.994-52.275-124.006-118.784-129.946-6.298-0.563-11.674 4.506-11.674 10.803v43.622c0 5.427 4.045 9.933 9.421 10.752 27.187 3.891 47.974 24.934 53.606 51.507h-99.891c-20.685 0-37.478 16.794-37.478 37.478v129.843c0 20.685 16.794 37.478 37.478 37.478h129.843c20.685 0 37.478-16.794 37.478-37.478v-154.061zM768 461.261c0-67.994-52.275-124.006-118.784-129.946-6.298-0.563-11.674 4.506-11.674 10.803v43.622c0 5.427 4.045 9.933 9.421 10.752 27.187 3.942 47.974 24.934 53.606 51.507h-99.891c-20.685 0-37.478 16.794-37.478 37.478v129.843c0 20.685 16.794 37.478 37.478 37.478h129.843c20.685 0 37.478-16.794 37.478-37.478v-154.061z" />
<glyph unicode="&#xe618;" glyph-name="google-play" d="M253.063 35.797l392.5 221.563-84.234 93.359-308.266-314.922zM109.681 851.297c-4.497-8.1-7.281-17.413-7.281-27.741v-774.45c0-14.334 5.356-26.634 13.472-36.359l390.478 398.913-396.669 439.637zM894.953 474.525l-136.831 77.241-139.381-142.394 99.925-110.747 176.287 99.512c16.037 8.106 24.888 22.791 26.647 38.194-1.759 15.403-10.609 30.088-26.647 38.194zM684.284 593.447l-472.050 266.466 351.522-389.597 120.528 123.131z" />
<glyph unicode="&#xe619;" glyph-name="grooveshark" d="M512 898.611c-248.883 0-450.56-201.728-450.56-450.611 0-248.781 201.677-450.611 450.611-450.611 248.832 0 450.56 201.779 450.56 450.611-0.051 248.883-201.728 450.611-450.611 450.611zM693.146 430.694c-24.371 34.099-49.306 67.584-76.646 99.277-25.651 29.901-52.941 58.419-82.637 84.224-29.594 25.805-61.85 50.278-97.28 67.379-23.808 11.52-48.333 20.122-73.677 27.443-2.867 0.768-10.65 4.301-12.902 0.768-1.434-2.202-0.307-6.298-0.102-8.704 0.717-5.274 1.331-10.496 1.997-15.77 7.578-62.874 10.445-129.28-9.114-190.413-10.445-32.922-29.594-62.976-55.040-86.323-21.146-19.405-51.302-38.912-81.254-37.478-5.53 0.205-11.162 1.178-16.589 3.021-32.051 10.803-33.946 45.363-34.15 73.882-0.205 30.618 3.482 61.184 11.059 90.88 2.304 9.114 5.171 18.074 8.192 26.982 35.072 101.683 116.224 184.422 218.061 220.518 38.093 13.517 78.438 20.326 118.938 20.326 119.091 0 232.397-61.184 297.83-160.614 16.384-24.986 29.542-52.019 39.219-80.179h-0.154c3.123-8.909 5.99-17.92 8.346-26.982 7.475-29.696 11.264-60.314 11.059-90.88-0.41-57.6-18.944-121.19-91.29-90.675-34.15 14.438-62.669 43.622-83.866 73.318z" />
<glyph unicode="&#xe61a;" glyph-name="houzz" d="M204.8 448l307.2-153.6-307.2-153.6v307.2zM512 601.6l307.2-153.6v307.2l-307.2-153.6zM512-64l307.2 153.6v358.4l-307.2-153.6v-358.4zM512 960l-307.2-153.6v-358.4l307.2 153.6v358.4z" />
<glyph unicode="&#xe61b;" glyph-name="icloud" d="M558.541 704c96.461 0 174.95-81.818 174.95-182.323 0-6.963-0.614-14.848-1.894-24.781 0 0-8.346-64.614-10.547-81.613s9.523-33.28 27.034-33.434c17.51-0.102 84.48-0.512 84.48-0.512 49.050-0.307 89.037-42.752 89.037-94.618 0-52.224-40.192-94.72-89.6-94.72h-618.65c-61.184 0-110.95 52.326-110.95 116.634 0 46.746 26.573 88.832 67.738 107.264 0 0 21.555 9.626 33.331 14.899s26.010 22.067 26.419 39.68c0.41 17.613 0.819 36.557 0.819 36.557 0.614 27.392 21.555 49.664 46.592 49.664 1.638 0 4.813-0.307 10.598-1.792 0 0 39.629-10.086 53.197-13.517s31.027 3.379 37.376 15.821c6.349 12.442 25.754 50.227 25.754 50.227 30.618 59.546 89.754 96.563 154.317 96.563zM558.541 806.4c-106.547 0-198.963-61.798-245.402-152.269-11.52 2.918-23.398 4.915-35.789 4.915-81.254 0-147.098-66.765-148.992-149.709-75.469-33.741-128.358-110.797-128.358-200.704 0-120.986 95.488-219.034 213.35-219.034h618.65c106.035 0 192 88.269 192 197.12 0 108.442-85.35 196.352-190.874 197.018 1.587 12.442 2.714 25.037 2.714 37.939 0.051 157.235-124.109 284.723-277.299 284.723v0z" />
<glyph unicode="&#xe61c;" glyph-name="instagram" d="M870.4 908.8h-716.8c-56.32 0-102.4-46.080-102.4-102.4v-716.8c0-56.371 46.080-102.4 102.4-102.4h716.8c56.32 0 102.4 46.029 102.4 102.4v716.8c0 56.32-46.080 102.4-102.4 102.4zM511.181 165.222c156.621 0 283.546 127.027 283.546 283.597 0 17.306-2.202 33.997-5.274 50.381h80.947v-369.459c0-19.558-15.872-35.328-35.482-35.328h-645.837c-19.61 0-35.482 15.77-35.482 35.328v369.459h79.309c-3.123-16.384-5.325-33.075-5.325-50.381 0-156.621 127.027-283.597 283.597-283.597zM333.978 448.819c0 97.894 79.36 177.203 177.254 177.203 97.843 0 177.254-79.309 177.254-177.203s-79.411-177.254-177.254-177.254c-97.946 0-177.254 79.36-177.254 177.254zM834.918 652.8h-82.688c-19.558 0-35.43 15.974-35.43 35.43v82.79c0 19.558 15.872 35.379 35.379 35.379h82.688c19.661 0 35.533-15.821 35.533-35.379v-82.739c0-19.507-15.872-35.482-35.482-35.482z" />
<glyph unicode="&#xe61d;" glyph-name="instagram-with-circle" d="M665.6 448c0-84.838-68.762-153.6-153.6-153.6s-153.6 68.762-153.6 153.6c0 8.755 0.922 17.306 2.509 25.6h-53.709v-204.646c0-14.234 11.52-25.754 25.754-25.754h358.144c14.182 0 25.702 11.52 25.702 25.754v204.646h-53.709c1.587-8.294 2.509-16.845 2.509-25.6zM512 345.6c56.525 0 102.4 45.875 102.4 102.4s-45.875 102.4-102.4 102.4-102.4-45.875-102.4-102.4 45.875-102.4 102.4-102.4zM634.88 555.52h61.389c8.499 0 15.411 6.912 15.411 15.36v61.389c0 8.499-6.912 15.411-15.411 15.411h-61.389c-8.499 0-15.411-6.912-15.411-15.411v-61.389c0.051-8.448 6.963-15.36 15.411-15.36zM512 939.52c-271.462 0-491.52-220.058-491.52-491.52s220.058-491.52 491.52-491.52c271.462 0 491.52 220.058 491.52 491.52s-220.058 491.52-491.52 491.52zM768 248.883c0-31.283-25.6-56.883-56.883-56.883h-398.234c-31.283 0-56.883 25.6-56.883 56.883v398.234c0 31.283 25.6 56.883 56.883 56.883h398.234c31.283 0 56.883-25.6 56.883-56.883v-398.234z" />
<glyph unicode="&#xe61e;" glyph-name="lastfm" d="M438.989 213.709c-24.422-17.818-74.496-52.429-173.107-52.429-136.243 0-265.882 96.922-265.882 276.736 0 186.778 135.014 296.704 274.125 296.704 156.006 0 214.17-56.73 263.373-210.381l38.707-118.221c28.211-86.426 87.706-148.992 206.131-148.992 79.77 0 121.958 17.715 121.958 61.389 0 34.304-19.917 59.187-79.718 73.421l-79.821 18.893c-97.28 23.603-135.987 74.496-135.987 154.88 0 128.819 103.219 169.011 208.742 169.011 119.654 0 192.358-43.725 201.728-150.118l-117.299-14.182c-4.71 50.79-35.226 72.090-91.494 72.090-51.61 0-83.302-23.603-83.302-63.795 0-35.482 15.309-56.781 66.918-68.608l75.059-16.589c100.864-23.603 154.88-73.318 154.88-169.114 0-118.221-98.509-163.123-244.019-163.123-202.906 0-273.306 92.211-310.784 206.899l-37.581 118.221c-28.109 86.374-50.688 148.582-153.907 148.582-71.578 0-164.813-46.899-164.813-192.307 0-113.51 77.978-184.525 158.925-184.525 68.608 0 109.875 38.605 131.277 57.907l35.891-102.349z" />
<glyph unicode="&#xe61f;" glyph-name="lastfm-with-circle" d="M512 939.52c-271.462 0-491.52-220.058-491.52-491.52s220.058-491.52 491.52-491.52 491.52 220.058 491.52 491.52-220.058 491.52-491.52 491.52zM647.373 303.104c-102.502 0-138.086 46.592-156.979 104.602l-18.995 59.699c-14.182 43.571-25.651 75.11-77.773 75.11-36.147 0-83.251-23.706-83.251-97.178 0-57.293 39.424-93.184 80.282-93.184 34.662 0 55.501 19.507 66.355 29.286l18.125-51.814c-12.339-8.909-37.581-26.47-87.398-26.47-68.915 0-134.4 48.998-134.4 139.776 0 94.413 68.25 150.016 138.496 150.016 78.848 0 108.186-28.672 133.12-106.394l19.558-59.699c14.234-43.622 44.288-75.315 104.141-75.315 40.294 0 61.645 9.011 61.645 31.078 0 17.306-10.086 29.901-40.294 37.018l-40.294 9.626c-49.203 11.878-68.762 37.581-68.762 78.285 0 65.075 52.122 85.402 105.523 85.402 60.467 0 97.178-22.118 101.888-75.878l-59.238-7.117c-2.355 25.6-17.766 36.403-46.234 36.403-26.061 0-42.035-11.981-42.035-32.307 0-17.92 7.68-28.621 33.792-34.611l37.888-8.397c50.944-11.93 78.234-37.018 78.234-85.402-0.051-59.853-49.869-82.534-123.392-82.534z" />
<glyph unicode="&#xe620;" glyph-name="linkedin" d="M256 806.4c0-56.32-35.84-102.4-102.4-102.4-61.44 0-102.4 46.080-102.4 97.28 0 56.32 40.96 107.52 102.4 107.52s102.4-46.080 102.4-102.4zM51.2-12.8h204.8v665.6h-204.8v-665.6zM747.52 642.56c-107.52 0-168.96-61.44-194.56-102.4h-5.12l-10.24 87.040h-184.32c0-56.32 5.12-122.88 5.12-199.68v-440.32h204.8v363.52c0 20.48 0 35.84 5.12 51.2 15.36 35.84 40.96 81.92 97.28 81.92 71.68 0 102.4-61.44 102.4-143.36v-353.28h204.8v378.88c0 189.44-97.28 276.48-225.28 276.48z" />
<glyph unicode="&#xe621;" glyph-name="linkedin-with-circle" d="M512 939.52c-271.462 0-491.52-220.058-491.52-491.52s220.058-491.52 491.52-491.52 491.52 220.058 491.52 491.52-220.058 491.52-491.52 491.52zM391.68 244.275h-99.533v320.307h99.533v-320.307zM341.299 603.904c-31.437 0-51.763 22.272-51.763 49.818 0 28.109 20.941 49.715 53.043 49.715s51.763-21.606 52.378-49.715c0-27.546-20.275-49.818-53.658-49.818zM755.2 244.275h-99.533v177.51c0 41.318-14.438 69.376-50.432 69.376-27.494 0-43.827-18.995-51.046-37.274-2.662-6.502-3.328-15.718-3.328-24.883v-184.678h-99.584v218.112c0 39.987-1.28 73.421-2.611 102.195h86.477l4.557-44.493h1.997c13.107 20.89 45.21 51.712 98.918 51.712 65.485 0 114.586-43.878 114.586-138.189v-189.389z" />
<glyph unicode="&#xe622;" glyph-name="mail-with-circle" d="M512 939.522c-271.459 0-491.519-220.062-491.519-491.522s220.059-491.519 491.519-491.519 491.519 220.059 491.519 491.519-220.059 491.522-491.519 491.522zM319.044 601.6h385.003c20.419 0 9.909-26.2-1.203-32.925-11.112-6.7-164.931-99.688-170.666-103.138s-13.156-5.1-20.622-5.1c-7.469 0-14.891 1.65-20.622 5.1-5.734 3.45-159.556 96.437-170.669 103.138-11.109 6.725-21.622 32.925-1.222 32.925zM716.8 320c0-10.75-12.888-25.6-22.756-25.6h-364.088c-9.869 0-22.756 14.85-22.756 25.6 0 0 0 181.988 0 186.712 0 4.7-0.088 10.825 8.8 5.6 12.622-7.4 167.2-98.562 174.934-103.112 7.731-4.55 13.153-5.097 20.622-5.097 7.466 0 12.888 0.547 20.622 5.097s163.2 95.688 175.822 103.087c8.888 5.225 8.8-0.9 8.8-5.6 0-4.725 0-186.687 0-186.687z" />
<glyph unicode="&#xe623;" glyph-name="medium" d="M960.012 704c0 0-38.412 0-38.412-38.407s0-435.214 0-435.214 0-38.378 38.412-38.378h12.788v-102.4h-307.2v102.4h51.2v476.162h-5.119l-156.906-578.562h-138.181l-155.475 578.562h-5.119v-476.162h51.2v-102.4h-256v102.4h12.788c0 0 38.412 0 38.412 38.407s0 435.214 0 435.214 0 38.378-38.412 38.378h-12.788v102.4h339.662l119.137-443.35h3.925l120.237 443.35h338.638v-102.4h-12.788z" />
<glyph unicode="&#xe624;" glyph-name="medium-with-circle" d="M512 939.522c-271.459 0-491.519-220.062-491.519-491.522s220.059-491.519 491.519-491.519 491.519 220.059 491.519 491.519-220.059 491.522-491.519 491.522zM727.041 567.466h-5.969c0 0-17.925 0-17.925-17.925 0-17.922 0-203.094 0-203.094s0-17.909 17.925-17.909h5.969v-47.787h-143.359v47.787h23.891v222.203h-2.388l-73.222-269.991h-64.484l-72.556 269.991h-2.388v-222.203h23.894v-47.787h-119.469v47.787h5.969c0 0 17.925 0 17.925 17.922s0 203.097 0 203.097 0 17.909-17.925 17.909h-5.969v47.784h158.509l55.597-206.891h1.831l56.113 206.891h158.031v-47.784z" />
<glyph unicode="&#xe625;" glyph-name="mixi" d="M488.755 76.39h48.896v-109.722c333.312 35.021 511.078 365.722 482.355 598.579-28.877 232.96-279.091 393.83-560.333 359.424-281.19-34.509-484.762-251.29-455.987-484.301 26.266-211.866 235.622-364.186 485.069-363.981zM803.533 301.568h-93.747v253.594c0 10.189-0.922 19.814-2.714 28.518-1.485 7.578-4.301 13.978-8.397 19.507-3.891 5.12-9.574 9.318-16.896 12.493-7.782 3.379-18.586 5.12-31.898 5.12-27.494 0-48.998-7.219-64.051-21.299-14.899-13.978-22.17-32.41-22.17-56.32v-241.613h-93.696v253.594c0 10.496-0.973 20.224-3.021 28.877-1.741 7.68-4.659 14.182-8.858 19.814-3.942 5.222-9.165 9.114-16.077 12.134-7.373 3.174-17.408 4.813-29.696 4.813-15.974 0-29.696-3.021-40.704-8.909-11.418-5.99-20.736-13.312-27.699-21.606-7.066-8.397-12.237-17.101-15.309-25.907-3.174-8.806-4.71-15.872-4.71-21.197v-241.613h-93.798v394.035h90.010v-30.72c29.389 26.010 66.867 39.219 111.667 39.219 26.112 0 50.227-5.274 71.629-15.616 15.667-7.526 28.365-18.688 37.786-33.382 11.827 12.698 25.805 23.091 41.677 31.181 23.245 11.827 49.050 17.818 76.749 17.818 20.582 0 39.578-2.202 56.422-6.502 17.562-4.403 32.973-11.52 45.824-21.094 13.21-9.882 23.552-22.784 30.822-38.4 7.219-15.411 10.854-33.792 10.854-54.784v-281.754z" />
<glyph unicode="&#xe626;" glyph-name="onedrive" d="M329.165 455.834c24.934 100.403 115.149 173.773 222.259 173.773 63.283 0 122.573-25.856 165.478-70.758 18.125 5.837 39.322 10.342 58.163 10.752v6.656c0 127.078-94.464 230.144-210.944 230.144-83.251 0-154.624-53.146-188.928-129.587-25.293 17.101-54.835 27.392-86.733 27.392-91.392 0-165.427-80.742-165.427-180.378 0-10.752 1.229-21.197 2.918-31.386-70.502-6.963-125.696-79.053-125.696-157.696 0-0.819 0.205-1.485 0.205-2.304-0.051-0.717-0.461-1.434-0.461-2.15 0-31.488 10.957-60.262 28.723-83.507 25.19-33.894 64.614-54.784 109.568-54.784h64.563c-12.595 24.986-20.378 52.838-20.378 82.688-0.051 88.934 62.976 163.43 146.688 181.146zM915.917 357.018c-1.28 0-2.56-0.358-3.84-0.41 0.358 3.789 1.126 7.475 1.126 11.366 0 75.366-61.082 136.397-136.448 136.397-30.003 0-57.498-9.933-80.077-26.419-27.955 51.968-82.125 87.654-145.306 87.654-91.546 0-165.734-74.189-165.734-165.734 0-1.178 0.307-2.202 0.358-3.379-6.042 0.922-12.083 1.843-18.381 1.843-68.352 0-123.648-55.347-123.648-123.648 0-8.55 0.87-16.896 2.509-24.934 11.674-62.003 65.946-108.954 131.379-108.954h548.147v0.973c54.886 5.222 97.997 50.893 97.997 107.11 0 59.699-48.384 108.134-108.083 108.134z" />
<glyph unicode="&#xe627;" glyph-name="paypal" d="M405.197 413.338h84.941c184.525 0 289.229 83.098 322.56 253.952 1.075 5.632 2.048 11.059 2.867 16.486 1.843 11.571 2.765 21.965 3.174 31.949 0.307 6.861 0.512 10.906 0.461 14.694-0.41 20.019-3.942 36.966-11.059 53.197-6.605 15.155-16.589 30.054-31.386 47.002-43.674 49.664-119.757 78.182-210.637 78.182h-289.434c-20.378 0-37.734-14.848-40.909-34.97l-52.224-336.435-64.973-419.072c-2.355-15.104 9.318-28.723 24.576-28.723h141.926l43.469 258.202c5.99 37.888 38.246 65.536 76.646 65.536zM871.27 648.192c-40.55-193.075-171.878-295.526-381.184-295.526h-84.89c-8.397 0-15.462-6.042-16.794-14.438l-56.576-351.027h148.838c17.818 0 33.024 12.954 35.789 30.566l1.485 7.68 28.416 179.917 1.843 9.933c2.765 17.613 17.971 30.566 35.789 30.566h22.528c145.92 0 260.147 59.29 293.53 230.707 13.722 70.656 6.758 129.741-28.774 171.622z" />
<glyph unicode="&#xe628;" glyph-name="picasa" d="M297.37 866.662c-158.157-81.306-256.41-241.715-256.41-419.738 0-32.41 4.096-65.28 11.315-98.202l406.989 370.637c-43.418 39.475-157.491 143.309-161.894 147.302zM706.202 876.749c-61.44 27.904-126.771 42.291-194.253 42.291-47.821 0-94.976-7.987-140.749-22.579l335.002-304.691v284.979zM777.83 835.174v-543.59h178.432c17.562 50.278 26.726 102.605 26.726 155.392 0.051 155.29-77.926 300.646-205.158 388.198zM74.906 272.435c34.509-86.682 95.078-161.28 172.442-214.221v371.2l-104.704-95.283c-35.738-32.461-65.536-59.699-67.738-61.696zM318.976 16.64c47.872-21.606 97.946-34.918 149.504-39.68h86.477c154.573 14.387 293.222 105.882 368.589 242.893h-604.57v-203.213z" />
<glyph unicode="&#xe629;" glyph-name="pinterest" d="M441.19 282.778c-26.931-141.005-59.75-276.173-157.082-346.778-30.003 213.094 44.083 373.094 78.541 542.976-58.726 98.816 7.066 297.574 130.816 248.576 152.32-60.211-131.891-367.206 58.88-405.606 199.219-39.987 280.525 345.6 156.979 470.989-178.432 181.146-519.475 4.25-477.491-255.078 10.189-63.386 75.674-82.586 26.163-170.086-114.227 25.293-148.326 115.405-143.923 235.52 7.066 196.608 176.589 334.182 346.675 353.28 215.091 24.115 416.973-79.002 444.877-281.293 31.386-228.403-97.075-475.802-327.117-457.984-62.362 4.864-88.474 35.789-137.318 65.485z" />
<glyph unicode="&#xe62a;" glyph-name="pinterest-with-circle" d="M512 939.52c-271.462 0-491.52-220.058-491.52-491.52s220.058-491.52 491.52-491.52 491.52 220.058 491.52 491.52-220.058 491.52-491.52 491.52zM545.638 331.52c-31.539 2.406-44.749 18.022-69.427 32.973-13.568-71.219-30.157-139.52-79.309-175.206-15.206 107.725 22.221 188.518 39.629 274.381-29.645 49.92 3.533 150.323 66.099 125.645 76.954-30.515-66.662-185.6 29.747-205.005 100.659-20.173 141.773 174.694 79.36 237.978-90.214 91.494-262.502 2.099-241.306-128.87 5.12-32 38.246-41.728 13.21-85.914-57.702 12.8-74.957 58.317-72.704 118.989 3.533 99.328 89.242 168.909 175.155 178.483 108.698 12.083 210.688-39.885 224.819-142.182 15.821-115.405-49.101-240.282-165.274-231.27z" />
<glyph unicode="&#xe62b;" glyph-name="qq" d="M870.656 293.478c-39.885 28.006-89.651 26.112-117.965-14.182-28.314-40.192-226.202-288.41-550.451-185.293 12.237-10.701 25.088-20.787 38.656-30.31 212.634-149.811 506.47-98.714 656.179 113.92 28.416 40.294 13.466 87.757-26.419 115.866zM244.992 325.069c-20.685 44.595-136.653 340.122 114.688 569.395-15.36-5.325-30.566-11.315-45.568-18.278-235.981-109.312-338.739-389.274-229.427-625.306 20.634-44.595 69.274-55.501 113.562-35.021 44.237 20.531 67.379 64.614 46.746 109.21zM554.291 917.862c-48.947 4.403-82.637-32.205-87.040-80.794-4.352-48.589 22.272-90.675 71.219-95.078s362.854-51.712 435.712-384.102c3.174 15.923 5.427 32.102 6.963 48.589 23.296 259.123-167.782 488.090-426.854 511.386zM352.819 420.864c-13.517-31.693-15.667-62.106-4.813-67.686 7.475-3.891 19.149 5.018 30.106 21.299 4.352-17.766 15.104-33.894 30.464-46.797-16.077-5.888-26.624-15.616-26.624-26.573 0-18.125 28.467-32.717 63.539-32.717 31.642 0 57.856 11.878 62.72 27.494 1.28 0 6.298 0 7.526 0 4.864-15.616 31.078-27.494 62.771-27.494 35.123 0 63.539 14.592 63.539 32.717 0 11.008-10.496 20.685-26.624 26.573 15.309 12.902 26.112 28.979 30.413 46.797 10.957-16.282 22.63-25.19 30.157-21.299 10.803 5.581 8.704 35.994-4.864 67.686-10.598 24.986-24.986 43.418-35.942 47.411 0.205 1.587 0.205 3.226 0.205 4.813 0 9.728-2.662 18.586-7.27 25.805 0.102 0.614 0.102 1.178 0.102 1.69 0 4.506-1.075 8.602-2.867 12.186-2.765 64.922-45.005 116.429-113.357 116.429-68.403 0-110.643-51.507-113.408-116.378-1.792-3.584-2.918-7.68-2.918-12.186 0-0.512 0.051-1.075 0.102-1.69-4.506-7.27-7.219-16.179-7.219-25.856 0-1.587 0.051-3.174 0.205-4.813-10.906-3.994-25.344-22.374-35.942-47.411z" />
<glyph unicode="&#xe62c;" glyph-name="qq-with-circle" d="M512 939.522c-271.459 0-491.519-220.062-491.519-491.522s220.059-491.519 491.519-491.519 491.519 220.059 491.519 491.519-220.059 491.522-491.519 491.522zM717.194 329.184c-9.384-4.875-24.022 6.259-37.722 26.653-5.381-22.272-18.891-42.409-38.031-58.553 20.141-7.378 33.278-19.516 33.278-33.275 0-22.644-35.597-40.913-79.506-40.913-39.597 0-72.437 14.888-78.503 34.403h-9.444c-6.072-19.516-38.847-34.403-78.447-34.403-43.909 0-79.503 18.269-79.503 40.913 0 13.759 13.138 25.897 33.281 33.275-19.203 16.144-32.653 36.281-38.1 58.553-13.694-20.394-28.331-31.528-37.656-26.653-13.575 7.006-10.884 45.044 6.006 84.7 13.259 31.278 31.344 54.3 44.975 59.3-0.187 2-0.25 4.003-0.25 6.003 0 12.137 3.381 23.272 9.069 32.284-0.056 0.75-0.122 1.497-0.122 2.125 0 5.625 1.378 10.756 3.625 15.259 3.441 81.194 56.3 145.628 141.875 145.628 85.506 0 138.366-64.434 141.869-145.628 2.253-4.503 3.569-9.634 3.569-15.259 0-0.628 0-1.375-0.128-2.125 5.756-9.013 9.069-20.147 9.069-32.284 0-2-0.056-4.003-0.25-6.003 13.703-5 31.713-28.022 44.978-59.3 16.95-39.656 19.578-77.694 6.069-84.7z" />
<glyph unicode="&#xe62d;" glyph-name="raft" d="M290.48-12.8c-44.919 0-84.485 18.46-111.427 51.936-33.026 41.099-43.592 99.096-29.778 163.338l2.973 13.822 101.044-22.088-2.973-13.776c-7.136-33.017-4.254-59.65 8.096-75.033 7.593-9.414 18.388-14.235 32.065-14.235 39.704 0 79.088 63.553 108.82 175.001-32.568 11.067-62.483 27.414-89.105 48.767l-10.932 8.771 64.405 81.37 11.024-8.817c14.043-11.296 29.732-20.526 46.794-27.506 8.645 49.594 15.552 104.055 20.63 162.236l1.235 14.052 102.965-9.092-1.235-14.052c-5.215-59.88-12.305-116.086-21.041-167.333 71.037 7.164 135.762 47.481 171.761 108.096 59.007 99.371 35.541 223.768-55.759 295.817-39.018 30.812-96.333 48.301-149.851 45.638-66.783-2.801-123.092-32.872-167.324-90.41-53.244-69.202-58.87-172.935-13.357-246.591l7.41-11.985-87.825-54.966-7.41 12.031c-68.521 110.989-60.562 261.193 19.44 365.202 62.804 81.738 147.426 126.549 244.765 130.636 79.454 3.123 159.411-21.53 217.96-67.679 132.835-104.79 166.775-286.082 80.735-431.006-37.874-63.783-96.378-112.412-166.043-138.587 12.899-19.654 23.877-43.165 36.456-77.513l8.096-22.501c25.432-71.038 37.051-77.375 63.764-77.375 12.076 0 25.295 5.143 33.62 13.133 16.010 15.337 20.721 44.818 14.043 87.661l-2.196 13.96 102.142 16.118 2.196-13.96c12.076-77.467-3.476-139.413-44.919-179.134-27.765-26.542-66.006-41.741-104.886-41.741-47.663 0-86.269 17.817-114.675 52.9-19.715 24.246-30.647 49.364-46.337 93.080l-7.822 21.812c-18.16 49.548-34.215 74.574-57.36 87.386-7.044-26.955-14.82-52.165-23.237-75.171-44.278-120.908-107.173-182.211-186.947-182.211z" />
<glyph unicode="&#xe62e;" glyph-name="raft-with-circle" d="M512 939.522c-271.459 0-491.519-220.062-491.519-491.522s220.059-491.519 491.519-491.519 491.519 220.059 491.519 491.519-220.059 491.522-491.519 491.522zM676.587 233.3c-14.291-13.662-33.975-21.484-53.988-21.484-24.537 0-44.409 9.169-59.031 27.228-10.147 12.481-15.775 25.413-23.85 47.916l-4.028 11.225c-9.347 25.506-17.612 38.388-29.525 44.984-3.628-13.875-7.628-26.853-11.963-38.697-22.791-62.234-55.166-93.791-96.231-93.791-23.122 0-43.487 9.5-57.356 26.731-17 21.156-22.441 51.013-15.328 84.081l1.528 7.112 52.012-11.369-1.528-7.091c-3.675-16.997-2.191-30.706 4.166-38.625 3.909-4.844 9.466-7.328 16.506-7.328 20.437 0 40.712 32.716 56.016 90.084-16.766 5.697-32.162 14.109-45.866 25.103l-5.628 4.513 33.153 41.887 5.672-4.537c7.231-5.816 15.306-10.569 24.088-14.159 4.45 25.528 8.006 53.563 10.619 83.509l0.638 7.234 53-4.681-0.634-7.231c-2.684-30.825-6.334-59.756-10.831-86.137 36.566 3.688 69.884 24.444 88.416 55.644 30.372 51.153 18.294 115.184-28.703 152.272-20.084 15.863-49.588 24.862-77.138 23.494-34.375-1.444-63.359-16.922-86.128-46.541-27.409-35.622-30.303-89.019-6.875-126.931l3.813-6.169-45.206-28.297-3.816 6.194c-35.272 57.131-31.175 134.45 10.006 187.991 32.328 42.072 75.887 65.141 125.994 67.244 40.9 1.606 82.056-11.081 112.197-34.837 68.375-53.941 85.847-147.262 41.556-221.863-19.494-32.831-49.609-57.863-85.469-71.337 6.638-10.116 12.291-22.219 18.766-39.9l4.166-11.581c13.094-36.569 19.072-39.828 32.825-39.828 6.216 0 13.019 2.647 17.306 6.759 8.241 7.894 10.666 23.069 7.228 45.122l-1.131 7.188 52.578 8.297 1.131-7.188c6.216-39.875-1.791-71.762-23.125-92.209z" />
<glyph unicode="&#xe62f;" glyph-name="rainbow" d="M512 704c-282.769 0-512-229.228-512-512h76.8c0 240.356 194.85 435.2 435.2 435.2s435.2-194.844 435.2-435.2h76.8c0 282.772-229.231 512-512 512zM512 396.8c-113.112 0-204.8-91.691-204.8-204.8h76.8c0 70.694 57.306 128 128 128s128-57.306 128-128h76.8c0 113.109-91.688 204.8-204.8 204.8zM512 550.4c-197.938 0-358.4-160.459-358.4-358.4h76.8c0 155.525 126.075 281.6 281.6 281.6s281.6-126.075 281.6-281.6h76.8c0 197.941-160.462 358.4-358.4 358.4z" />
<glyph unicode="&#xe630;" glyph-name="rdio" d="M829.594 447.949c0-220.518-176.538-399.309-394.291-399.309s-394.342 178.79-394.342 399.309c0 220.621 176.538 399.411 394.291 399.411 31.283 0 61.645-3.891 90.829-10.906v-227.379c-46.182 16.896-102.912 14.387-156.314-11.418-96.512-46.592-145.459-151.398-109.312-233.984 36.096-82.688 143.718-112.026 240.179-65.382 66.509 32.102 125.082 109.414 125.082 206.285v293.069c8.294-4.608 16.384-9.626 24.32-14.797 74.957-47.104 186.266-110.182 316.314-116.787 50.688-2.509-19.917-130.099-140.186-165.683 2.253-17.101 3.43-34.611 3.43-52.429z" />
<glyph unicode="&#xe631;" glyph-name="rdio-with-circle" d="M512 939.52c-271.462 0-491.52-220.058-491.52-491.52s220.058-491.52 491.52-491.52 491.52 220.058 491.52 491.52-220.058 491.52-491.52 491.52zM686.234 474.522c1.126-8.704 1.741-17.51 1.741-26.522 0-111.411-89.19-201.779-199.27-201.779-109.978 0-199.219 90.419-199.219 201.779 0 111.514 89.19 201.83 199.219 201.83 15.821 0 31.13-1.997 45.875-5.478v-114.944c-23.245 8.499-51.968 7.27-78.899-5.683-48.742-23.603-73.472-76.493-55.245-118.323 18.278-41.779 72.602-56.627 121.395-33.024 33.587 16.179 63.181 55.194 63.181 104.192v148.122c4.198-2.304 8.294-4.915 12.288-7.475 37.837-23.808 94.106-55.603 159.795-58.982 25.651-1.331-10.086-65.741-70.861-83.712z" />
<glyph unicode="&#xe632;" glyph-name="renren" d="M433.562 915.712c-222.771-37.325-392.602-231.014-392.602-464.435 0-116.019 41.984-222.106 111.565-304.179 164.915 79.821 280.166 260.403 281.037 470.579v298.035zM512.102 332.39c-29.338-121.498-116.992-225.28-226.202-294.298 67.072-36.813 144.179-57.805 226.099-57.805 82.022 0 159.13 20.992 226.202 57.805-109.21 69.018-196.813 172.8-226.099 294.298zM590.592 619.878c0-211.098 115.507-392.602 280.934-472.781 69.53 82.074 111.514 188.211 111.514 304.179 0 233.421-169.728 427.008-392.448 464.384v-295.782z" />
<glyph unicode="&#xe633;" glyph-name="scribd" d="M237.722 23.859c0-11.469-3.686-25.19-7.578-36.659h293.734c16.794 19.302 26.266 42.547 26.266 68.71 0 70.912-84.173 110.285-268.339 196.71l-25.907 12.083c-90.778 43.162-158.003 81.152-204.698 126.413v-225.178c9.011 1.229 18.381 2.15 28.57 2.15 153.651-0.051 157.952-142.797 157.952-144.23zM870.4 908.8h-191.386c89.498-60.314 126.31-145.51 126.31-212.070 0-112.333-94.003-148.736-139.622-148.736l-13.875-0.102c-104.755 0-158.208 63.846-158.925 189.798-6.195 4.915-35.226 23.194-120.166 23.194-100.352 0-141.978-79.002-141.978-121.293 0-49.818 27.802-105.216 229.581-173.158 344.883-115.405 344.883-269.056 344.883-404.634v-1.331c0-22.374-1.587-47.309-5.99-73.267h71.168c56.32 0 102.4 46.029 102.4 102.4v716.8c0 56.32-46.080 102.4-102.4 102.4z" />
<glyph unicode="&#xe634;" glyph-name="sina-weibo" d="M752.026 444.518c-14.029 4.301-23.706 7.27-16.333 26.010 15.923 40.806 17.613 75.981 0.358 101.12-32.41 47.104-121.037 44.595-222.618 1.28 0 0.102-31.898-14.182-23.757 11.622 15.667 51.046 13.261 93.85-11.059 118.528-55.091 56.218-201.574-2.099-327.27-129.997-94.157-95.795-148.787-197.274-148.787-285.082 0-167.987 211.558-280.32 418.56-280.32 271.309 0 451.84 170.701 451.84 298.086 0 77.056-63.693 120.73-120.934 138.752zM421.683 82.995c-165.12-16.384-307.763 58.726-318.464 167.68-10.701 109.005 114.483 210.688 279.654 227.226 165.171 16.384 307.763-58.675 318.464-167.68 10.701-109.107-114.483-210.842-279.654-227.226zM1021.44 581.274c-0.051 169.574-137.523 306.995-307.2 306.995-19.814 0-35.789-15.974-35.789-35.789s15.974-35.789 35.789-35.789c130.099 0 235.571-105.523 235.571-235.622 0-19.814 16.026-35.789 35.84-35.789s35.789 16.026 35.789 35.84v0.154zM879.053 586.496c-16.333 79.974-79.411 143.002-159.386 159.386-19.354 3.994-38.298-8.499-42.291-27.904-3.942-19.302 8.499-38.298 27.904-42.291 52.019-10.598 92.979-51.61 103.629-103.578 3.994-19.405 22.938-31.795 42.291-27.904 19.302 3.994 31.846 22.989 27.853 42.291zM336.998 371.098c-66.56-13.414-111.462-69.222-100.301-124.621 11.162-55.501 74.086-89.6 140.646-76.186 66.509 13.414 111.411 69.222 100.301 124.621-11.162 55.398-74.189 89.6-140.646 76.186z" />
<glyph unicode="&#xe635;" glyph-name="skype" d="M955.955 343.706c6.758 31.898 10.394 65.126 10.394 99.226 0 255.283-201.216 462.285-449.382 462.285-26.163 0-51.814-2.406-76.8-6.81-40.192 26.010-87.654 41.114-138.598 41.114-143.923 0-260.608-120.013-260.608-268.134 0-49.408 13.107-95.795 35.789-135.578-5.939-30.003-9.114-61.133-9.114-92.928 0-255.283 201.216-462.285 449.28-462.285 28.211 0 55.654 2.611 82.278 7.68 36.71-20.275 78.592-31.795 123.187-31.795 143.923 0 260.608 120.013 260.608 268.083 0.051 42.854-9.728 83.251-27.034 119.142zM747.469 221.901c-20.787-30.208-51.507-54.221-91.29-71.219-39.373-16.896-86.63-25.395-140.39-25.395-64.512 0-118.63 11.622-160.922 34.714-30.208 16.794-55.091 39.475-73.984 67.482-19.046 28.416-28.723 56.525-28.723 83.61 0 16.896 6.298 31.59 18.688 43.622 12.288 11.878 28.109 18.022 46.899 18.022 15.411 0 28.774-4.813 39.578-14.182 10.342-9.011 19.2-22.426 26.317-39.578 7.987-18.79 16.691-34.611 25.856-47.104 8.806-11.981 21.504-22.118 37.632-30.003 16.282-7.885 38.298-11.878 65.28-11.878 37.12 0 67.584 8.090 90.522 24.218 22.426 15.821 33.28 34.611 33.28 57.702 0 18.278-5.683 32.614-17.408 43.878-12.186 11.674-28.416 20.89-47.923 27.187-20.429 6.502-48.179 13.619-82.483 20.992-46.592 10.291-86.17 22.477-117.709 36.198-32.256 14.080-58.214 33.69-77.21 58.214-19.2 24.73-29.030 55.91-29.030 92.518 0 34.918 10.24 66.406 30.515 93.594 20.122 26.88 49.408 47.872 87.194 62.31 37.274 14.182 81.715 21.402 131.891 21.402 40.090 0 75.418-4.813 104.806-14.182 29.594-9.523 54.579-22.323 74.189-38.093 19.814-15.923 34.509-32.922 43.725-50.483 9.318-17.92 14.080-35.584 14.080-52.787 0-16.486-6.195-31.488-18.483-44.595-12.288-13.21-27.802-19.814-46.080-19.814-16.589 0-29.696 4.198-38.707 12.39-8.397 7.578-17.203 19.61-26.829 36.71-11.213 21.914-24.781 39.219-40.346 51.302-15.104 11.878-40.346 17.92-75.059 17.92-32.205 0-58.419-6.707-77.773-19.814-18.842-12.749-27.904-27.238-27.904-44.339 0-10.598 2.97-19.405 9.011-26.88 6.4-8.090 15.411-15.104 26.778-20.992 11.776-6.144 23.91-10.957 36.096-14.438 12.493-3.584 33.485-8.806 62.208-15.718 36.403-7.987 69.786-16.998 99.277-26.675 29.952-9.882 55.808-22.016 76.902-36.096 21.504-14.49 38.605-33.024 50.637-55.091 12.134-22.221 18.278-49.613 18.278-81.408 0.051-38.144-10.547-72.806-31.386-103.219z" />
<glyph unicode="&#xe636;" glyph-name="skype-with-circle" d="M622.797 455.578c-11.776 7.885-26.317 14.694-43.059 20.224-16.538 5.478-35.226 10.496-55.654 15.002-16.077 3.789-27.802 6.81-34.765 8.806-6.81 1.894-13.619 4.608-20.275 8.090-6.349 3.277-11.418 7.219-15.002 11.725-3.328 4.198-5.018 9.216-5.018 15.104 0 9.626 5.12 17.715 15.616 24.781 10.854 7.322 25.549 11.008 43.571 11.008 19.456 0 33.587-3.277 42.035-9.882 8.704-6.81 16.282-16.486 22.528-28.774 5.427-9.626 10.291-16.282 15.053-20.48 5.069-4.608 12.339-7.014 21.658-7.014 10.291 0 18.944 3.686 25.856 11.11 6.861 7.322 10.342 15.718 10.342 24.986 0 9.626-2.714 19.61-7.885 29.491s-13.414 19.405-24.422 28.314c-11.008 8.909-24.934 15.974-41.523 21.299-16.486 5.325-36.301 7.987-58.726 7.987-28.16 0-52.992-3.994-73.882-11.981-21.146-8.090-37.581-19.866-48.845-34.97-11.366-15.206-17.101-32.819-17.101-52.378 0-20.48 5.478-37.888 16.282-51.814 10.598-13.722 25.19-24.678 43.213-32.614 17.715-7.68 39.834-14.49 65.997-20.275 19.149-4.096 34.714-8.090 46.131-11.776 10.957-3.482 20.019-8.602 26.88-15.206 6.502-6.298 9.677-14.285 9.677-24.627 0-12.902-6.093-23.398-18.586-32.307-12.851-9.011-29.901-13.517-50.688-13.517-15.155 0-27.392 2.202-36.557 6.707-9.062 4.403-16.128 9.984-21.094 16.691-5.171 7.014-9.984 15.923-14.438 26.419-3.994 9.677-9.011 17.101-14.797 22.221-5.99 5.325-13.517 7.885-22.118 7.885-10.598 0-19.405-3.379-26.317-9.984-6.963-6.81-10.496-15.002-10.496-24.525 0-15.104 5.427-30.925 16.128-46.694 10.598-15.821 24.525-28.518 41.472-37.888 23.654-12.902 53.965-19.405 90.112-19.405 30.106 0 56.525 4.813 78.643 14.182 22.272 9.523 39.475 22.989 51.098 39.885 11.674 16.998 17.613 36.506 17.613 57.805 0 17.818-3.43 33.178-10.24 45.619-6.81 12.39-16.384 22.682-28.416 30.771zM512 939.52c-271.462 0-491.52-220.058-491.52-491.52s220.058-491.52 491.52-491.52 491.52 220.058 491.52 491.52-220.058 491.52-491.52 491.52zM629.811 172.8c-24.934 0-48.435 6.4-69.018 17.818-14.899-2.918-30.31-4.403-46.080-4.403-138.906 0-251.597 116.019-251.597 258.918 0 17.92 1.792 35.328 5.12 52.122-12.749 22.221-20.070 48.128-20.070 75.827 0 82.893 65.331 150.221 145.971 150.221 28.518 0 55.091-8.499 77.619-23.091 13.926 2.509 28.365 3.789 42.957 3.789 139.008 0 251.648-115.917 251.648-258.918 0-18.995-1.997-37.581-5.786-55.501 9.677-20.122 15.155-42.701 15.155-66.714-0.051-82.842-65.331-150.067-145.92-150.067z" />
<glyph unicode="&#xe637;" glyph-name="slideshare" d="M665.6 597.504c70.707 0 128 57.293 128 128s-57.293 128-128 128-128-57.293-128-128 57.344-128 128-128zM964.864 655.718c-183.296-130.816-267.725-107.93-350.464-105.318-57.242 2.918-76.8-15.258-76.8-55.296l0.051-307.2c0-256 431.155-175.616 264.448 253.389 85.555 49.101 157.491 124.621 198.451 174.694 21.043 31.13-1.434 63.744-35.686 39.731zM358.4 853.504c-70.707 0-128-57.293-128-128s57.293-128 128-128 128 57.293 128 128-57.344 128-128 128zM409.6 550.4c-82.739-2.611-167.168-25.498-350.464 105.318-34.253 24.013-56.73-8.602-35.686-39.68 40.96-50.125 112.896-125.594 198.451-174.694-166.707-429.005 264.448-509.389 264.448-253.389l0.051 307.2c0 39.987-19.558 58.163-76.8 55.245z" />
<glyph unicode="&#xe638;" glyph-name="smashing" d="M513.178 139.162c-128.41 0-217.754 79.616-217.754 79.616l-75.93-172.186c52.378-28.006 107.11-47.923 138.701-58.419l-81.51-19.507c-38.195-9.114-76.595 14.49-85.76 52.685l-158.208 661.914c-9.165 38.195 14.387 76.595 52.634 85.811l190.259 45.517c-46.592-52.685-64.666-115.302-60.109-186.88 7.117-112.282 114.534-198.605 242.381-246.886 240.691-90.931 183.603-241.664 55.296-241.664zM991.283 212.787l-158.259 661.914c-9.114 38.195-47.514 61.798-85.76 52.582l-136.346-32.614c34.765-5.376 103.629-20.48 179.456-60.314l-59.341-164.506c0 0-49.408 55.194-181.914 61.901-125.952 6.4-195.994-129.894 49.613-210.176 188.109-61.491 248.218-180.019 245.094-289.69-1.587-56.986-21.555-103.322-44.646-138.291l139.52 33.382c38.195 9.114 61.747 47.514 52.582 85.811z" />
<glyph unicode="&#xe639;" glyph-name="soundcloud" d="M34.406 291.584l16.794 71.731-16.794 74.086c-0.461 2.202-4.71 3.891-9.779 3.891-5.222 0-9.421-1.69-9.779-3.891l-14.848-74.086 14.797-71.68c0.41-2.304 4.608-3.891 9.779-3.891 5.12-0.051 9.37 1.536 9.83 3.84zM139.418 251.802l14.182 110.797-14.182 171.418c-0.461 4.301-5.837 7.782-12.237 7.782-6.502 0-11.93-3.482-12.186-7.782l-12.595-171.418 12.595-110.797c0.307-4.403 5.683-7.782 12.186-7.782 6.4 0 11.776 3.379 12.237 7.782zM244.122 253.594l11.878 108.902-11.878 228.198c-0.307 5.427-6.605 9.626-14.438 9.626-7.782 0-14.080-4.198-14.387-9.626l-10.496-228.198 10.496-109.005c0.307-5.274 6.605-9.523 14.387-9.523 7.834 0.051 14.131 4.25 14.438 9.626zM348.672 255.181l9.728 107.315-9.728 229.888c-0.256 6.298-7.475 11.315-16.384 11.315-9.011 0-16.179-5.018-16.435-11.315l-8.653-229.888 8.704-107.315c0.205-6.298 7.424-11.315 16.384-11.315 8.909 0.051 16.128 4.915 16.384 11.315zM453.12 256.614l7.68 105.779-7.68 263.629c-0.205 7.27-8.397 13.056-18.33 13.056s-18.125-5.888-18.278-13.107l-6.912-263.475 6.912-105.882c0.154-7.219 8.346-13.107 18.278-13.107s18.125 5.786 18.33 13.107zM526.182 243.405c0.41 0 363.52-0.205 365.824-0.205 72.909 0 131.994 57.19 131.994 127.693s-59.085 127.59-131.994 127.59c-18.074 0-35.277-3.584-50.995-9.882-10.496 114.995-110.234 205.21-231.885 205.21-29.747 0-58.778-5.683-84.378-15.206-10.035-3.789-12.646-7.578-12.749-15.104v-404.992c0.102-7.834 6.349-14.285 14.182-15.104z" />
<glyph unicode="&#xe63a;" glyph-name="spotify" d="M512 898.56c-248.883 0-450.56-201.626-450.56-450.56 0-248.781 201.677-450.56 450.56-450.56 248.934 0 450.509 201.728 450.509 450.56 0 248.883-201.523 450.56-450.509 450.56zM690.074 217.498c-8.858 0-15.053 3.379-21.555 7.322-60.877 36.915-136.294 56.269-218.010 56.269-41.677 0-86.682-4.966-133.632-14.592l-5.734-1.434c-5.939-1.434-12.032-3.021-16.691-3.021-18.995 0-33.843 14.746-33.843 33.587 0 19.098 10.752 32.614 28.774 35.994 56.115 12.8 108.954 19.046 161.382 19.046 94.976 0 179.866-22.016 252.467-65.485 12.442-7.27 20.275-15.667 20.275-34.202-0.051-18.483-15.002-33.485-33.434-33.485zM736.819 348.621c-10.598 0-17.562 4.045-23.706 7.629-109.722 65.075-273.050 86.682-407.603 50.842-2.253-0.666-4.301-1.28-6.144-1.894-5.069-1.587-9.779-3.174-16.435-3.174-22.118 0-40.090 18.074-40.090 40.346 0 21.453 11.213 36.454 31.437 42.189 51.866 14.234 100.557 23.654 170.65 23.654 113.254 0 223.078-28.416 309.146-79.923 15.667-8.96 22.784-21.197 22.784-39.475 0-22.221-17.971-40.192-40.038-40.192zM789.862 498.125c-9.984 0-16.128 2.406-25.344 7.373-74.394 44.646-190.464 71.219-310.733 71.219-62.669 0-119.603-6.912-169.267-20.326-1.69-0.41-3.277-0.87-5.018-1.382-5.274-1.587-11.878-3.482-18.688-3.482-26.419 0-47.053 20.89-47.053 47.565 0 23.194 13.005 40.909 34.816 47.36 59.955 17.715 128.973 26.675 205.107 26.675 137.114 0 267.571-30.464 357.939-83.507 16.998-9.677 25.344-24.32 25.344-44.646 0-26.266-20.685-46.848-47.104-46.848z" />
<glyph unicode="&#xe63b;" glyph-name="spotify-with-circle" d="M512 939.52c-271.462 0-491.52-220.058-491.52-491.52s220.058-491.52 491.52-491.52 491.52 220.058 491.52 491.52-220.058 491.52-491.52 491.52zM663.757 251.546c-7.578 0-12.8 2.867-18.381 6.246-51.866 31.386-116.122 47.872-185.754 47.872-35.533 0-73.882-4.198-113.971-12.39l-4.864-1.229c-5.12-1.229-10.291-2.56-14.285-2.56-16.128 0-28.774 12.544-28.774 28.621 0 16.282 9.216 27.802 24.525 30.72 47.821 10.906 92.877 16.179 137.574 16.179 80.896 0 153.293-18.688 215.091-55.808 10.65-6.195 17.306-13.312 17.306-29.133-0.051-15.77-12.749-28.518-28.467-28.518zM703.59 363.315c-9.062 0-14.95 3.43-20.224 6.502-93.44 55.501-232.806 73.882-347.392 43.366-1.894-0.563-3.584-1.075-5.222-1.587-4.301-1.382-8.397-2.714-14.029-2.714-18.842 0-34.15 15.411-34.15 34.406 0 18.278 9.523 31.078 26.829 35.942 44.134 12.083 85.709 20.122 145.408 20.122 96.563 0 190.157-24.218 263.475-68.096 13.363-7.578 19.405-18.074 19.405-33.69 0-18.944-15.309-34.253-34.099-34.253zM748.8 490.701c-8.499 0-13.773 1.997-21.555 6.298-63.437 38.093-162.355 60.723-264.909 60.723-53.402 0-101.888-5.888-144.23-17.306-1.434-0.358-2.816-0.768-4.25-1.229-4.506-1.331-10.138-2.97-15.974-2.97-22.477 0-40.090 17.818-40.090 40.55 0 19.763 11.11 34.867 29.645 40.346 51.098 15.104 109.978 22.682 174.848 22.682 116.787 0 227.994-25.907 304.998-71.219 14.541-8.192 21.658-20.685 21.658-37.99 0-22.323-17.664-39.885-40.141-39.885z" />
<glyph unicode="&#xe63c;" glyph-name="stumbleupon" d="M565.811 547.379l69.888-33.792 105.421 33.792v61.133c0 126.106-102.81 228.608-229.12 228.608s-229.12-102.502-229.12-228.608v-321.024c0-29.594-24.166-53.709-53.811-53.709-29.696 0-53.811 24.115-53.811 53.709v134.4h-175.258v-134.4c0-126.003 102.758-228.608 229.12-228.608 126.31 0 229.069 102.605 229.069 228.608v321.024c0 29.594 24.166 53.709 53.862 53.709 29.645 0 53.811-24.115 53.811-53.709v-61.133zM848.691 421.888v-134.4c0-29.594-24.115-53.709-53.811-53.709s-53.811 24.115-53.811 53.709v137.114l-105.421-33.69-69.888 33.69v-137.114c0-126.003 102.81-228.608 229.12-228.608s229.12 102.605 229.12 228.608v134.4h-175.309z" />
<glyph unicode="&#xe63d;" glyph-name="stumbleupon-with-circle" d="M512 939.52c-271.462 0-491.52-220.058-491.52-491.52s220.058-491.52 491.52-491.52 491.52 220.058 491.52 491.52-220.058 491.52-491.52 491.52zM512 561.408c-15.002 0-27.187-12.186-27.187-27.085v-162.202c0-63.693-51.968-115.507-115.763-115.507s-115.763 51.814-115.763 115.507v67.891h88.525v-67.891c0-15.002 12.186-27.085 27.187-27.085s27.187 12.083 27.187 27.085v162.202c0.102 63.693 51.968 115.456 115.814 115.456 63.795 0 115.763-51.814 115.763-115.507v-30.874l-53.248-17.101-35.328 17.101v30.925c0 14.899-12.134 27.085-27.187 27.085zM770.714 372.122c0-63.693-51.968-115.507-115.763-115.507-63.846 0-115.814 51.814-115.814 115.507v69.325l35.328-17.101 53.248 17.101v-69.325c0-15.002 12.186-27.085 27.187-27.085s27.136 12.083 27.136 27.085v67.891h88.627v-67.891z" />
<glyph unicode="&#xe63e;" glyph-name="swarm" d="M526.643-3.635c-73.165 11.878-139.93 31.078-188.262 47.258-2.355 0.768-39.987 14.438-51.558 18.944-14.234 5.478-21.658 22.067-16.23 36.352 4.403 11.52 19.405 48.589 20.429 50.893 20.48 47.104 51.2 110.234 91.904 173.005 1.485-61.594 15.206-122.829 40.499-179.507 24.576-55.142 59.853-105.267 103.219-146.944zM520.858 600.218c-142.899 291.277-460.288 280.883-510.362 150.682-38.451-99.942 129.792-338.022 516.966-166.093 0.102 0.051 0.102 0.051 0.205 0.102-1.331 2.406-5.837 12.646-6.81 15.309zM591.872 611.584c0.051 0 0.102 0.051 0.102 0.051 218.675 97.126 188.109 265.779 131.533 287.437-76.134 29.133-214.528-83.149-135.526-278.886 0.768-1.382 3.379-7.168 3.891-8.602zM993.946 398.336c-33.075 74.24-93.85 127.437-164.506 152.781-7.117 2.56-14.387 3.738-21.658 3.738-36.71 0-72.038-30.464-75.366-68.506-5.581-63.437 7.014-128.051 34.816-190.362 27.392-61.389 66.253-113.306 116.224-151.398 13.005-9.933 28.928-14.592 44.8-14.592 28.621 0 57.19 15.155 68.557 42.291 29.235 69.734 30.566 151.194-2.867 226.048zM828.006 72.243c-61.184 46.694-109.67 109.517-144.128 186.675-34.918 78.285-49.203 157.44-42.342 235.315 1.894 21.658 8.243 42.547 18.432 61.645-1.792-0.461-5.683-1.382-5.837-1.434-32.154-8.038-63.334-21.965-91.034-40.141-40.141-26.317-75.52-65.382-90.726-111.462-4.096-12.442-7.219-26.112-8.243-39.168-4.864-62.362 5.274-126.771 32.563-187.904 26.419-59.136 65.792-108.442 113.306-146.074 28.979-22.886 81.203-37.376 123.904-37.376 40.090 0 79.667 11.93 115.2 29.952 11.11 5.632 35.584 20.89 37.171 21.965-21.248 5.427-41.165 14.95-58.266 28.006z" />
<glyph unicode="&#xe63f;" glyph-name="tripadvisor" d="M1024 652.338h-144.825c-100.325 68.312-223.175 102.862-367.175 102.862s-266.85-34.55-367.175-102.862h-144.825c21.912-21.522 42.35-68.6 50.85-104.4-31.538-42.559-50.85-94.678-50.85-151.6 0-141.15 114.85-256 256-256 67.925 0 129.375 27.047 175.25 70.381l80.75-121.119 80.75 121.119c45.875-43.334 107.325-70.381 175.25-70.381 141.15 0 256 114.85 256 256 0 56.922-19.313 109.041-50.85 151.6 8.5 35.8 28.938 82.878 50.85 104.4zM256 222.256c-95.975 0-174.075 78.103-174.075 174.081s78.1 174.081 174.075 174.081 174.075-78.103 174.075-174.081-78.1-174.081-174.075-174.081zM512 396.338c0 123.766-88.325 227.241-205.237 250.869 61.612 20.734 129.925 31.194 205.237 31.194s143.625-10.459 205.237-31.194c-116.912-23.628-205.237-127.103-205.237-250.869zM768 222.256c-95.975 0-174.075 78.103-174.075 174.081s78.1 174.081 174.075 174.081 174.075-78.103 174.075-174.081-78.1-174.081-174.075-174.081zM256 506.419c-60.675 0-110.075-49.381-110.075-110.081s49.4-110.081 110.075-110.081 110.075 49.381 110.075 110.081-49.4 110.081-110.075 110.081zM256 363.519c-18.375 0-33.275 14.9-33.275 33.281s14.9 33.281 33.275 33.281 33.275-14.9 33.275-33.281-14.9-33.281-33.275-33.281zM768 506.419c-60.675 0-110.075-49.381-110.075-110.081s49.4-110.081 110.075-110.081 110.075 49.381 110.075 110.081-49.4 110.081-110.075 110.081zM768 363.519c-18.375 0-33.275 14.9-33.275 33.281s14.9 33.281 33.275 33.281 33.275-14.9 33.275-33.281-14.9-33.281-33.275-33.281z" />
<glyph unicode="&#xe640;" glyph-name="tumblr" d="M798.72 28.365c-39.782-18.995-75.776-32.307-107.981-39.987-32.256-7.578-67.123-11.418-104.602-11.418-42.547 0-80.179 5.478-112.896 16.282-32.717 10.906-60.57 26.419-83.712 46.49-23.091 20.224-39.117 41.574-48.026 64.205-8.909 22.682-13.363 55.603-13.363 98.611v330.496h-102.861v133.325c36.557 11.981 67.891 29.184 93.952 51.712 26.112 22.426 47.002 49.408 62.822 80.896 15.77 31.386 26.573 71.475 32.563 120.064h132.352v-238.182h220.877v-147.814h-220.877v-241.613c0-54.579 2.867-89.702 8.602-105.216 5.683-15.514 16.333-27.904 31.846-37.12 20.634-12.493 44.186-18.79 70.707-18.79 47.104 0 94.003 15.514 140.595 46.49v-148.429z" />
<glyph unicode="&#xe641;" glyph-name="tumblr-with-circle" d="M512 939.52c-271.462 0-491.52-220.058-491.52-491.52s220.058-491.52 491.52-491.52 491.52 220.058 491.52 491.52-220.058 491.52-491.52 491.52zM643.942 235.981c-20.122-9.626-38.298-16.282-54.579-20.224-16.282-3.789-33.894-5.786-52.787-5.786-21.504 0-40.499 2.816-57.037 8.294s-30.618 13.312-42.291 23.501c-11.674 10.086-19.763 20.992-24.269 32.41-4.506 11.52-6.758 28.109-6.758 49.818v167.014h-52.019v67.277c18.381 6.093 34.304 14.797 47.462 26.214 13.158 11.315 23.757 24.883 31.693 40.806 7.987 15.872 13.466 36.198 16.486 60.672h66.918v-120.32h111.616v-74.65h-111.616v-122.112c0-27.597 1.434-45.312 4.352-53.094 2.867-7.885 8.243-14.080 16.128-18.79 10.445-6.298 22.374-9.472 35.686-9.472 23.859 0 47.514 7.885 71.066 23.603v-75.162z" />
<glyph unicode="&#xe642;" glyph-name="twitter" d="M886.579 640.205c0.41-8.294 0.563-16.691 0.563-24.986 0-255.488-194.406-549.99-549.888-549.99-109.21 0-210.739 32-296.294 86.886 15.155-1.792 30.515-2.714 46.080-2.714 90.624 0 173.926 30.925 240.026 82.688-84.531 1.587-155.955 57.395-180.531 134.195 11.776-2.202 23.91-3.379 36.352-3.379 17.664 0 34.765 2.304 50.944 6.707-88.422 17.818-155.034 95.898-155.034 189.594 0 0.819 0 1.587 0 2.406 26.061-14.49 55.91-23.194 87.552-24.218-51.866 34.714-86.016 93.798-86.016 160.922 0 35.379 9.523 68.608 26.214 97.178 95.283-116.992 237.773-193.894 398.387-201.984-3.277 14.182-4.966 28.877-4.966 44.083 0 106.701 86.477 193.178 193.229 193.178 55.603 0 105.83-23.398 141.107-60.979 43.981 8.704 85.35 24.781 122.726 46.899-14.438-45.107-45.107-82.995-84.992-106.906 39.117 4.71 76.288 15.002 111.002 30.413-25.907-38.81-58.675-72.806-96.461-99.994z" />
<glyph unicode="&#xe643;" glyph-name="twitter-with-circle" d="M512 939.52c-271.462 0-491.52-220.058-491.52-491.52s220.058-491.52 491.52-491.52 491.52 220.058 491.52 491.52-220.058 491.52-491.52 491.52zM711.936 536.883c0.205-4.198 0.256-8.397 0.256-12.493 0-128-97.331-275.507-275.405-275.507-54.682 0-105.574 15.974-148.378 43.52 7.526-0.922 15.258-1.28 23.091-1.28 45.363 0 87.091 15.411 120.218 41.421-42.342 0.819-78.080 28.774-90.419 67.174 5.888-1.075 11.93-1.69 18.176-1.69 8.806 0 17.408 1.178 25.498 3.379-44.288 8.909-77.67 48.026-77.67 94.925v1.178c13.056-7.219 28.006-11.622 43.878-12.134-26.010 17.408-43.059 47.002-43.059 80.64 0 17.715 4.762 34.406 13.107 48.691 47.77-58.573 119.040-97.075 199.526-101.222-1.69 7.117-2.509 14.49-2.509 22.118 0 53.402 43.315 96.819 96.819 96.819 27.802 0 52.992-11.776 70.656-30.618 22.067 4.403 42.752 12.39 61.44 23.501-7.219-22.579-22.528-41.574-42.547-53.606 19.61 2.406 38.246 7.578 55.603 15.309-12.954-19.405-29.389-36.506-48.282-50.125z" />
<glyph unicode="&#xe644;" glyph-name="vimeo" d="M968.192 660.992c-51.507-295.578-339.2-545.792-425.728-602.982-86.528-57.088-165.53 22.886-194.15 83.507-32.819 68.966-131.021 443.187-156.774 474.163-25.754 31.027-102.912-30.976-102.912-30.976l-37.427 49.971c0 0 156.723 190.72 276.019 214.579 126.464 25.242 126.259-197.837 156.672-321.638 29.389-119.91 49.203-188.416 74.906-188.416s74.854 66.816 128.614 169.216c53.914 102.605-2.304 193.126-107.571 128.717 42.138 257.382 439.859 319.283 388.352 23.859z" />
<glyph unicode="&#xe645;" glyph-name="vimeo-with-circle" d="M512 939.52c-271.462 0-491.52-220.058-491.52-491.52s220.058-491.52 491.52-491.52 491.52 220.058 491.52 491.52-220.058 491.52-491.52 491.52zM737.331 542.72c-26.010-149.299-171.418-275.814-215.091-304.691-43.725-28.774-83.661 11.622-98.099 42.189-16.589 34.918-66.202 223.898-79.206 239.616-13.005 15.667-52.019-15.718-52.019-15.718l-18.893 25.293c0 0 79.206 96.41 139.469 108.39 63.898 12.8 63.795-99.891 79.155-162.509 14.899-60.57 24.883-95.181 37.837-95.181 13.005 0 37.837 33.69 64.973 85.504 27.238 51.814-1.126 97.587-54.323 65.024 21.248 130.048 222.208 161.382 196.198 12.083z" />
<glyph unicode="&#xe646;" glyph-name="vine" d="M893.542 450.509c-22.426-5.171-44.186-7.424-63.693-7.424-109.824 0-194.406 76.595-194.406 210.022 0 65.382 25.242 99.379 61.030 99.379 33.997 0 56.678-30.515 56.678-92.416 0-35.226-9.421-73.728-16.384-96.614 0 0 33.792-58.982 126.413-40.909 19.712 43.622 30.362 100.147 30.362 149.709 0 133.376-68.096 210.893-192.666 210.893-128.205 0-203.162-98.406-203.162-228.403 0-128.614 60.16-239.002 159.386-289.331-41.728-83.405-94.822-156.928-150.17-212.275-100.403 121.395-191.181 283.341-228.506 599.347h-147.968c68.352-526.285 272.333-693.914 326.298-726.067 30.515-18.33 56.73-17.459 84.685-1.741 43.776 24.832 175.206 156.365 248.166 310.323 30.566 0.102 67.277 3.533 103.936 11.827v103.68z" />
<glyph unicode="&#xe647;" glyph-name="vine-with-circle" d="M512 939.52c-271.462 0-491.52-220.058-491.52-491.52s220.058-491.52 491.52-491.52 491.52 220.058 491.52 491.52-220.058 491.52-491.52 491.52zM609.69 609.229c-18.944 0-32.358-18.022-32.358-52.634 0-70.554 44.8-111.155 102.963-111.155 10.291 0 21.862 1.229 33.69 3.942v-54.886c-19.354-4.403-38.81-6.195-54.989-6.298-38.656-81.459-108.186-151.091-131.328-164.25-14.848-8.346-28.723-8.806-44.954 0.922-28.621 17.050-136.602 105.728-172.698 384.41h78.336c19.814-167.322 67.84-252.979 120.986-317.235 29.235 29.235 57.395 68.198 79.462 112.282-52.48 26.726-84.378 85.146-84.378 153.19 0 68.864 39.68 120.934 107.622 120.934 65.894 0 101.939-41.062 101.939-111.667 0-26.317-5.581-56.218-16.077-79.258-48.998-9.626-66.816 21.658-66.816 21.658 3.584 12.083 8.602 32.512 8.602 51.098 0.051 32.768-11.981 48.947-30.003 48.947z" />
<glyph unicode="&#xe648;" glyph-name="vk" d="M911.462 330.342c0 0 82.79-81.766 103.27-119.603 0.563-0.819 0.819-1.434 0.922-1.792 8.346-13.978 10.394-24.934 6.298-33.024-6.912-13.363-30.31-20.070-38.246-20.634 0 0-142.234 0-146.33 0-10.189 0-31.386 2.662-57.19 20.48-19.712 13.773-39.322 36.454-58.317 58.624-28.365 32.922-52.89 61.491-77.722 61.491-3.174 0-6.246-0.512-9.216-1.536-18.79-5.939-42.65-32.717-42.65-104.038 0-22.323-17.613-35.021-29.952-35.021 0 0-63.898 0-67.021 0-22.835 0-141.722 7.987-247.142 119.142-129.178 136.090-245.197 409.088-246.323 411.494-7.219 17.664 7.936 27.29 24.32 27.29h147.763c19.814 0 26.266-11.981 30.771-22.733 5.222-12.339 24.576-61.696 56.32-117.146 51.405-90.214 82.995-126.925 108.237-126.925 4.762 0 9.267 1.178 13.517 3.584 32.973 18.125 26.829 135.885 25.293 160.154 0 4.71-0.051 52.582-16.947 75.725-12.083 16.589-32.666 23.040-45.107 25.395 3.328 4.813 10.394 12.186 19.456 16.538 22.579 11.264 63.386 12.902 103.885 12.902h22.477c43.93-0.614 55.296-3.43 71.27-7.475 32.154-7.68 32.768-28.518 29.952-99.482-0.819-20.275-1.69-43.11-1.69-69.99 0-5.734-0.256-12.134-0.256-18.637-0.973-36.403-2.253-77.414 23.45-94.259 3.277-2.048 7.117-3.174 11.11-3.174 8.909 0 35.584 0 107.93 124.16 31.744 54.835 56.32 119.501 58.010 124.365 1.434 2.714 5.734 10.342 10.957 13.414 3.994 2.458 9.318 2.867 12.083 2.867h173.824c18.944 0 31.795-2.867 34.304-10.035 4.198-11.622-0.819-47.104-80.179-154.419-13.363-17.869-25.088-33.331-35.379-46.848-71.936-94.413-71.936-99.174 4.25-170.854z" />
<glyph unicode="&#xe649;" glyph-name="vk-alternitive" d="M972.8 89.6v716.8c0 56.32-46.234 102.4-102.656 102.4h-716.288c-58.88 0-102.656-43.674-102.656-102.4v-716.8c0-58.778 43.776-102.4 102.656-102.4h716.288c56.422 0 102.656 46.029 102.656 102.4zM777.421 365.722c0 0 57.958-57.19 72.243-83.712 0.41-0.563 0.563-1.075 0.717-1.28 5.786-9.728 7.27-17.408 4.352-23.040-4.813-9.37-21.197-14.080-26.778-14.49 0 0-99.482 0-102.349 0-7.168 0-22.016 1.843-40.038 14.285-13.824 9.626-27.494 25.549-40.806 41.062-19.866 23.040-37.069 43.008-54.374 43.008-2.202 0-4.403-0.358-6.451-1.075-13.158-4.198-29.85-22.886-29.85-72.806 0-15.616-12.288-24.525-20.992-24.525 0 0-44.646 0-46.899 0-15.974 0-99.174 5.581-172.851 83.354-90.419 95.232-171.622 286.259-172.339 287.949-5.12 12.339 5.478 19.046 16.998 19.046h103.424c13.875 0 18.33-8.397 21.504-15.923 3.584-8.55 17.101-43.059 39.219-81.869 35.994-63.13 58.163-88.832 75.827-88.832 3.277 0 6.451 0.87 9.421 2.509 23.091 12.749 18.79 95.078 17.766 112.077 0 3.226-0.051 36.813-11.827 52.941-8.499 11.674-22.886 16.128-31.59 17.818 2.304 3.328 7.27 8.499 13.619 11.571 15.821 7.885 44.339 9.011 72.704 9.011h15.77c30.771-0.41 38.758-2.406 49.869-5.222 22.477-5.376 22.938-19.968 20.941-69.632-0.563-14.131-1.178-30.157-1.178-48.947 0-4.045-0.154-8.499-0.154-13.107-0.717-25.395-1.536-54.118 16.384-65.894 2.355-1.434 4.966-2.253 7.731-2.253 6.246 0 24.934 0 75.571 86.886 22.272 38.349 39.424 83.61 40.602 86.989 1.024 1.843 4.045 7.27 7.578 9.37 2.867 1.69 6.554 1.997 8.499 1.997h121.6c13.312 0 22.323-1.997 24.013-7.066 2.918-8.141-0.563-32.973-56.115-108.032-9.421-12.442-17.562-23.296-24.73-32.768-50.381-65.946-50.381-69.325 2.97-119.398z" />
<glyph unicode="&#xe64a;" glyph-name="vk-with-circle" d="M512 939.52c-271.462 0-491.52-220.058-491.52-491.52s220.058-491.52 491.52-491.52 491.52 220.058 491.52 491.52-220.058 491.52-491.52 491.52zM701.030 384.973c0 0 43.469-42.906 54.17-62.822 0.307-0.41 0.461-0.819 0.563-1.024 4.352-7.322 5.376-13.005 3.226-17.254-3.584-7.066-15.872-10.547-20.070-10.854 0 0-74.65 0-76.8 0-5.325 0-16.486 1.382-30.003 10.701-10.394 7.27-20.634 19.2-30.618 30.822-14.899 17.306-27.802 32.256-40.806 32.256-1.638 0-3.328-0.256-4.864-0.768-9.83-3.174-22.426-17.203-22.426-54.579 0-11.674-9.216-18.381-15.718-18.381 0 0-33.536 0-35.174 0-11.981 0-74.394 4.198-129.69 62.515-67.686 71.424-128.614 214.682-129.126 216.013-3.84 9.267 4.096 14.234 12.749 14.234h77.568c10.342 0 13.722-6.298 16.077-11.878 2.765-6.502 12.902-32.358 29.542-61.44 26.982-47.411 43.52-66.662 56.781-66.662 2.509 0 4.813 0.666 7.117 1.843 17.306 9.626 14.080 71.322 13.312 84.122 0 2.406-0.051 27.597-8.909 39.68-6.349 8.755-17.152 12.083-23.706 13.312 1.69 2.509 5.478 6.349 10.189 8.653 11.878 5.939 33.28 6.81 54.528 6.81h11.827c23.040-0.307 28.979-1.792 37.325-3.891 16.896-4.045 17.254-14.95 15.77-52.275-0.461-10.598-0.922-22.579-0.922-36.71 0-3.072-0.154-6.349-0.154-9.83-0.512-18.995-1.126-40.55 12.288-49.408 1.741-1.075 3.738-1.69 5.837-1.69 4.659 0 18.688 0 56.678 65.178 16.64 28.774 29.542 62.72 30.464 65.229 0.768 1.331 3.021 5.427 5.683 7.014 2.099 1.229 4.915 1.485 6.349 1.485h91.187c9.933 0 16.742-1.485 18.022-5.325 2.253-6.093-0.41-24.678-42.035-81.050-7.014-9.318-13.21-17.459-18.586-24.525-37.734-49.459-37.734-51.968 2.355-89.498z" />
<glyph unicode="&#xe64b;" glyph-name="windows-store" d="M486.4 794.059v-320.459h435.2v384l-435.2-63.541zM102.4 473.6h332.8v312.984l-332.8-48.587v-264.397zM486.4 101.941l435.2-63.541v384h-435.2v-320.459zM102.4 158.003l332.8-48.587v312.984h-332.8v-264.397z" />
<glyph unicode="&#xe64c;" glyph-name="xing" d="M906.394 908.8h-144.794c-11.418 0-28.314-5.376-35.328-19.507s-15.872-31.693-15.872-31.693l-256-512 153.6-307.2c0 0 8.806-17.613 15.872-31.693s23.91-19.507 35.328-19.507h144.794c25.6 0 24.576 19.507 18.176 32.307s-9.37 18.893-9.37 18.893l-153.6 307.2 256 512c0 0 3.021 6.093 9.421 18.893s7.373 32.307-18.227 32.307zM348.928 684.493c-7.014 14.131-23.91 19.507-35.328 19.507h-144.794c-25.6 0-24.576-19.507-18.176-32.307s9.37-18.893 9.37-18.893l64-128-115.2-230.4c0 0-3.021-6.093-9.421-18.893s-7.373-32.307 18.227-32.307h144.794c11.418 0 28.314 5.427 35.379 19.507 7.014 14.080 15.821 31.693 15.821 31.693l115.2 230.4-64 128c0 0-8.806 17.613-15.872 31.693z" />
<glyph unicode="&#xe64d;" glyph-name="xing-with-circle" d="M512 939.52c-271.462 0-491.52-220.058-491.52-491.52s220.058-491.52 491.52-491.52 491.52 220.058 491.52 491.52-220.058 491.52-491.52 491.52zM412.826 371.2c0 0-4.403-8.806-7.834-15.821-3.635-7.066-12.083-9.779-17.766-9.779h-72.397c-12.8 0-12.237 9.779-9.114 16.179 3.226 6.4 4.71 9.421 4.71 9.421l57.6 115.2-32 64c0 0-1.485 3.072-4.71 9.472-3.123 6.4-3.686 16.128 9.114 16.128h72.397c5.683 0 14.131-2.714 17.766-9.728 3.43-7.066 7.834-15.872 7.834-15.872l32-64-57.6-115.2zM718.336 662.272c-3.226-6.4-4.71-9.472-4.71-9.472l-128-256 76.8-153.6c0 0 1.485-3.021 4.71-9.421 3.174-6.4 3.686-16.179-9.114-16.179h-72.397c-5.734 0-14.080 2.714-17.664 9.779-3.533 7.066-7.936 15.821-7.936 15.821l-76.8 153.6 128 256c0 0 4.403 8.806 7.936 15.872s11.878 9.728 17.664 9.728h72.397c12.8 0 12.237-9.728 9.114-16.128z" />
<glyph unicode="&#xe64e;" glyph-name="yelp" d="M641.946 321.485l231.578-75.059c0 0 33.126-6.093 32.768-28.262-0.205-15.616-10.086-33.382-10.086-33.382l-97.792-141.107c0 0-17.459-14.643-35.123-14.643-17.613 0-37.939 27.494-37.939 27.494l-123.75 208.538c0 0-13.926 30.413 2.56 47.155 15.104 15.36 37.786 9.267 37.786 9.267zM592.384 417.28c11.827-20.275 44.544-14.387 44.544-14.387l231.066 68.147c0 0 31.488 12.954 35.994 30.157 4.403 17.254-5.222 38.042-5.222 38.042l-110.438 131.277c0 0-9.574 16.589-29.44 18.278-21.914 1.894-35.379-24.883-35.379-24.883l-130.56-207.36c0.051 0.051-11.469-20.582-0.563-39.27zM483.226 498.125c27.187 6.758 31.539 46.643 31.539 46.643l-1.843 332.032c0 0-4.096 40.96-22.323 52.070-28.621 17.51-37.069 8.397-45.261 7.168l-191.846-71.936c0 0-18.79-6.298-28.57-22.118-13.978-22.374 14.182-55.245 14.182-55.245l199.373-274.33c0 0 19.712-20.531 44.749-14.285zM435.866 363.776c0.666 25.6-30.464 41.011-30.464 41.011l-206.234 105.114c0 0-30.566 12.698-45.414 3.84-11.315-6.758-21.402-19.046-22.374-29.85l-13.414-166.861c0 0-1.997-28.928 5.427-42.086 10.496-18.637 45.107-5.683 45.107-5.683l240.742 53.709c9.318 6.349 25.702 6.963 26.624 40.806zM495.718 273.715c-20.685 10.701-45.414-11.469-45.414-11.469l-161.178-179.098c0 0-20.122-27.392-15.002-44.186 4.813-15.77 12.8-23.603 24.064-29.133l161.894-51.558c0 0 19.61-4.096 34.509 0.256 21.094 6.195 17.203 39.526 17.203 39.526l3.635 242.483c0-0.051-0.819 23.296-19.712 33.178z" />
<glyph unicode="&#xe64f;" glyph-name="youko" d="M994.204 341.523c-28.050 53.542-108.828 87.804-143.669 135.234 23.478 54.361 151.1 87.766 140.322 182.554-7.772 68.463-110.616 72.254-136.994 16.922-19.769-22.822-40.934-44.218-63.491-64.22-10.834-13.82-23.1-26.211-36.738-37.193-15.859-16.694-28.728-36.317-50.134-47.358v131.848c-0.491 71.72-133.134 71.72-133.641 0v-375.27c5.8-26.781 17.831-47.282 46.766-50.687h40.106c27.503 4.834 43.156 21.7 46.769 50.687v81.161c0 28.131-5.194 75.602 13.375 47.317 27.222-26.951 65.559-55.939 100.25-87.861 33.297-30.72 65.163-80.323 100.209-87.915 71.769-15.572 103.431 54.13 76.869 104.78zM419.501 747.229c-28.5-19.929-44.35-81.37-63.491-125.091-21.078-48.098-39.6-96.559-60.141-131.864-55.562 63.78-93.459 205.145-160.384 256.955-21.588 16.691-68.9 16.217-90.213 0-57.65-43.911 0.197-121.569 23.384-162.303 50.894-89.306 107.294-184.913 150.356-267.063-27.994-74.689-169.378-285.772 20.053-273.858 45.844 29.98 65.284 92.354 90.222 148.789 50.981 115.476 94.287 215.251 147.016 334.669 21.916 49.641 74.712 122.998 63.481 179.203-8.925 44.56-76.684 71.018-120.284 40.563z" />
<glyph unicode="&#xe650;" glyph-name="youko-with-circle" d="M512 939.522c-271.459 0-491.519-220.062-491.519-491.522s220.059-491.519 491.519-491.519 491.519 220.059 491.519 491.519-220.059 491.522-491.519 491.522zM491.321 474.651c-30.548-69.182-55.635-126.984-85.169-193.883-14.447-32.693-25.711-68.828-52.269-86.198-109.743-6.901-27.836 115.384-11.618 158.654-24.946 47.591-57.622 102.98-87.104 154.718-13.433 23.599-46.946 68.585-13.547 94.027 12.347 9.395 39.757 9.668 52.263 0 38.769-30.014 60.724-111.913 92.913-148.861 11.9 20.451 22.63 48.527 34.842 76.393 11.090 25.327 20.271 60.922 36.783 72.468 25.258 17.643 64.511 2.313 69.684-23.5 6.505-32.561-24.082-75.057-36.777-103.817zM746.822 306.23c-20.304 4.399-38.763 33.135-58.054 50.93-20.097 18.492-42.307 35.286-58.078 50.9-10.757 16.386-7.75-11.114-7.75-27.413v-47.018c-2.091-16.794-11.159-26.563-27.094-29.366h-23.233c-16.764 1.974-23.734 13.85-27.094 29.366v217.404c0.294 41.548 77.14 41.548 77.422 0v-76.384c12.401 6.397 19.857 17.763 29.045 27.437 7.9 6.361 15.006 13.538 21.283 21.547 13.067 11.588 25.33 23.983 36.783 37.203 15.282 32.054 74.862 29.861 79.363-9.803 6.244-54.915-67.691-74.265-81.292-105.759 20.184-27.479 66.983-47.327 83.231-78.346 15.39-29.342-2.952-69.723-44.53-60.7z" />
<glyph unicode="&#xe651;" glyph-name="youtube" d="M512 842.24c-503.194 0-512-44.749-512-394.24s8.806-394.24 512-394.24 512 44.749 512 394.24-8.806 394.24-512 394.24zM676.096 430.899l-229.888-107.315c-20.122-9.318-36.608 1.126-36.608 23.347v202.138c0 22.17 16.486 32.666 36.608 23.347l229.888-107.315c20.122-9.421 20.122-24.781 0-34.202z" />
<glyph unicode="&#xe652;" glyph-name="youtube-with-circle" d="M594.074 456.55l-114.995 53.658c-10.035 4.659-18.278-0.563-18.278-11.674v-101.069c0-11.11 8.243-16.333 18.278-11.674l114.944 53.658c10.086 4.71 10.086 12.39 0.051 17.101zM512 939.52c-271.462 0-491.52-220.058-491.52-491.52s220.058-491.52 491.52-491.52 491.52 220.058 491.52 491.52-220.058 491.52-491.52 491.52zM512 248.32c-251.597 0-256 22.682-256 199.68s4.403 199.68 256 199.68 256-22.682 256-199.68-4.403-199.68-256-199.68z" />
<glyph unicode="&#xe653;" glyph-name="address" d="M1013.709 695.552l-121.6 93.696c-6.912 4.762-16.589 9.011-26.675 12.134-10.138 3.123-20.634 5.018-29.030 5.018h-350.003l41.011-256h308.992c8.397 0 18.893 1.894 28.979 5.018s19.814 7.424 26.675 12.083l121.6 93.798c6.912 4.659 10.342 10.854 10.342 17.101s-3.43 12.442-10.291 17.152zM435.2 908.8h-51.2c-14.131 0-25.6-11.469-25.6-25.6v-179.2h-170.803c-8.499 0-18.944-1.894-29.030-5.069-10.138-3.072-19.814-7.322-26.675-12.083l-121.6-93.696c-6.912-4.659-10.291-10.906-10.291-17.152 0-6.195 3.379-12.39 10.291-17.152l121.6-93.798c6.861-4.659 16.538-8.96 26.675-12.032 10.086-3.123 20.531-5.018 29.030-5.018h170.803v-435.2c0-14.131 11.469-25.6 25.6-25.6h51.2c14.131 0 25.6 11.469 25.6 25.6v870.4c0 14.131-11.469 25.6-25.6 25.6z" />
<glyph unicode="&#xe654;" glyph-name="add-to-list" d="M993.28 499.2h-174.080v174.080c0 30.72-20.48 30.72-51.2 30.72s-51.2 0-51.2-30.72v-174.080h-174.080c-30.72 0-30.72-20.48-30.72-51.2s0-51.2 30.72-51.2h174.080v-174.080c0-30.72 20.48-30.72 51.2-30.72s51.2 0 51.2 30.72v174.080h174.080c30.72 0 30.72 20.48 30.72 51.2s0 51.2-30.72 51.2zM378.88 499.2h-348.16c-30.72 0-30.72-20.48-30.72-51.2s0-51.2 30.72-51.2h348.16c30.72 0 30.72 20.48 30.72 51.2s0 51.2-30.72 51.2zM378.88 243.2h-348.16c-30.72 0-30.72-20.48-30.72-51.2s0-51.2 30.72-51.2h348.16c30.72 0 30.72 20.48 30.72 51.2s0 51.2-30.72 51.2zM378.88 755.2h-348.16c-30.72 0-30.72-20.48-30.72-51.2s0-51.2 30.72-51.2h348.16c30.72 0 30.72 20.48 30.72 51.2s0 51.2-30.72 51.2z" />
<glyph unicode="&#xe655;" glyph-name="add-user" d="M818.637-19.405c0.563 109.005-111.923 173.517-221.030 220.518-108.698 46.797-143.411 86.221-143.411 170.701 0 50.637 33.178 34.15 47.718 127.027 6.144 38.502 35.43 0.614 41.062 88.525 0 35.021-16.026 43.725-16.026 43.725s8.141 51.866 11.315 91.802c3.277 41.83-20.378 131.072-117.811 158.464-16.998 17.459-28.518 45.158 23.91 72.909-114.688 5.325-141.363-54.682-202.445-98.816-51.968-38.707-65.997-99.994-63.488-132.608 3.328-39.936 11.418-91.802 11.418-91.802s-16.077-8.704-16.077-43.725c5.632-87.962 35.021-50.022 41.114-88.525 14.541-92.877 47.77-76.39 47.77-127.027 0-84.48-10.854-113.152-119.603-159.949-109.107-46.95-143.053-122.214-142.49-231.219 0.154-32.614-0.563-44.595-0.563-44.595h819.2c0 0-0.717 11.981-0.563 44.595zM870.4 448v153.6h-102.4v-153.6h-153.6v-102.4h153.6v-153.6h102.4v153.6h153.6v102.4h-153.6z" />
<glyph unicode="&#xe656;" glyph-name="adjust" d="M972.8 489.011c-9.318 0-40.909 0-50.176 0-28.314 0-51.2-18.381-51.2-41.011 0-22.579 22.886-40.909 51.2-40.909 9.318 0 40.909 0 50.176 0 28.262 0 51.2 18.278 51.2 40.909 0 22.579-22.989 41.011-51.2 41.011zM512 729.6c-156.211 0-281.6-125.389-281.6-281.6s125.389-281.6 281.6-281.6c156.16 0 281.6 125.389 281.6 281.6s-125.491 281.6-281.6 281.6zM512 243.2c-113.203 0-204.8 91.699-204.8 204.8 0 113.203 91.597 204.8 204.8 204.8v-409.6zM153.6 448c0 22.579-22.989 41.011-51.2 41.011-9.472 0-41.779 0-51.2 0-28.314 0-51.2-18.381-51.2-41.011 0-22.579 22.886-40.909 51.2-40.909 9.421 0 41.728 0 51.2 0 28.211 0 51.2 18.33 51.2 40.909zM512 806.4c22.579 0 40.909 22.886 40.909 51.2 0 9.421 0 41.779 0 51.2 0 28.314-18.33 51.2-40.909 51.2-22.63 0-41.011-22.886-41.011-51.2 0-9.421 0-41.779 0-51.2 0-28.314 18.381-51.2 41.011-51.2zM512 89.6c-22.63 0-41.011-22.886-41.011-51.2 0-9.421 0-41.779 0-51.2 0-28.314 18.381-51.2 41.011-51.2 22.579 0 40.909 22.886 40.909 51.2 0 9.421 0 41.779 0 51.2 0 28.314-18.33 51.2-40.909 51.2zM889.088 767.181c20.019 20.019 23.245 49.203 7.27 65.178s-45.21 12.698-65.126-7.322c-5.53-5.478-30.362-30.31-35.84-35.789-20.019-20.019-23.245-49.203-7.27-65.178s45.21-12.698 65.178 7.322c5.478 5.53 30.259 30.31 35.789 35.789zM170.701 164.71c-5.53-5.581-30.362-30.413-35.84-35.891-20.019-20.019-23.245-49.101-7.27-65.075s45.21-12.8 65.126 7.219c5.53 5.478 30.362 30.31 35.84 35.789 20.019 20.019 23.245 49.203 7.27 65.229s-45.21 12.646-65.126-7.27zM192.768 825.088c-19.968 20.019-49.203 23.296-65.178 7.322s-12.698-45.21 7.219-65.229c5.53-5.478 30.362-30.31 35.84-35.789 20.019-20.019 49.152-23.296 65.126-7.322s12.749 45.21-7.219 65.178c-5.478 5.53-30.259 30.362-35.789 35.84zM795.341 106.701c5.53-5.478 30.362-30.31 35.84-35.789 20.019-20.019 49.152-23.194 65.126-7.322 15.974 15.974 12.749 45.21-7.27 65.178-5.478 5.478-30.31 30.31-35.789 35.789-20.019 20.019-49.203 23.296-65.229 7.322s-12.698-45.158 7.322-65.178z" />
<glyph unicode="&#xe657;" glyph-name="air" d="M135.322 634.522c89.446 76.8 160.102 137.523 351.846 29.184 92.109-52.019 166.4-71.68 228.198-71.578 108.288 0 178.483 60.211 239.155 112.282 21.658 18.586 24.422 51.61 6.246 73.677-18.278 22.118-50.534 24.986-72.192 6.4-89.395-76.902-160.102-137.626-351.846-29.184-253.338 143.002-372.019 41.114-467.354-40.806-21.606-18.586-24.371-51.507-6.195-73.677 18.227-22.016 50.483-24.934 72.141-6.298zM888.576 523.008c-89.395-76.8-160.102-137.626-351.846-29.184-253.338 143.104-372.019 41.165-467.354-40.704-21.606-18.586-24.422-51.61-6.195-73.677 18.176-22.118 50.483-24.986 72.141-6.4 89.446 76.851 160.102 137.574 351.846 29.286 92.109-52.122 166.4-71.68 228.198-71.68 108.288 0 178.483 60.211 239.155 112.384 21.658 18.586 24.422 51.61 6.246 73.626-18.227 22.17-50.534 24.934-72.192 6.349zM888.576 261.581c-89.395-76.902-160.102-137.626-351.846-29.286-253.338 143.104-372.019 41.216-467.354-40.704-21.606-18.586-24.422-51.61-6.195-73.677 18.176-22.118 50.483-24.883 72.141-6.298 89.446 76.8 160.102 137.472 351.846 29.184 92.109-52.019 166.4-71.68 228.198-71.68 108.288 0 178.483 60.314 239.155 112.384 21.658 18.586 24.422 51.61 6.246 73.677-18.227 22.118-50.534 24.934-72.192 6.4z" />
<glyph unicode="&#xe658;" glyph-name="aircraft" d="M639.795 68.403c-20.173 56.115-92.416 244.48-122.368 322.406-56.474-37.734-119.501-73.472-179.814-98.714-18.739-65.536-56.013-189.901-74.035-206.49-30.925-28.518-42.598-24.832-47.36 14.285s-24.832 165.683-24.832 165.683-110.694 62.413-145.408 80.282-34.15 30.259 2.918 49.869c21.606 11.418 149.862 4.352 217.19-0.256 44.083 48.691 98.867 96.358 153.242 137.165-62.208 55.091-212.48 188.16-257.741 226.509-39.731 33.69 4.045 40.806 4.045 40.806 19.968 3.584 62.566 6.758 83.354 0.461 129.229-39.066 329.83-105.882 376.986-121.651 18.074 12.749 37.734 26.624 59.494 42.035 240.742 170.496 301.414 132.762 312.883 116.224s25.754-87.091-214.989-257.638c-21.76-15.411-41.37-29.338-59.392-42.138-1.485-50.176-8.038-263.731-15.923-399.923-1.28-21.914-18.79-61.338-28.928-79.053-0.051 0-21.658-39.168-39.322 10.138z" />
<glyph unicode="&#xe659;" glyph-name="aircraft-landing" d="M960.102 138.854c-4.966-13.619-42.086-51.302-308.685 44.954l-261.376 94.362c-90.982 32.819-219.034 84.429-269.21 113.51-35.123 20.326-42.803 65.638-42.803 65.638s-8.346 151.347-13.466 188.621c-5.12 37.274 4.864 43.674 40.755 25.19 22.323-11.52 95.488-131.174 126.157-182.63 77.414-19.507 146.534-38.963 178.842-48.589-13.158 87.91-37.888 252.314-46.746 303.77-8.499 49.306 28.16 27.392 28.16 27.392 16.947-9.728 50.33-33.843 61.747-51.302 77.926-119.091 188.006-337.92 196.403-354.714 45.875-14.336 116.582-37.53 158.822-52.736 110.387-39.885 158.054-155.341 151.398-173.466z" />
<glyph unicode="&#xe65a;" glyph-name="aircraft-take-off" d="M1017.344 629.606c6.093-13.158 6.502-66.048-250.061-186.47l-251.546-118.067c-87.552-41.114-214.579-95.181-270.592-110.131-39.219-10.445-76.646 16.179-76.646 16.179s-112.947 101.12-142.95 123.853c-29.952 22.733-27.392 34.304 11.008 46.592 23.91 7.629 160.256-25.242 218.368-39.936 68.557 40.96 131.174 76.083 160.819 92.058-71.475 52.89-205.21 151.654-247.859 181.76-40.909 28.928 0.512 39.322 0.512 39.322 18.842 5.069 59.494 11.674 79.974 7.373 139.315-29.133 371.866-106.035 389.683-111.923 42.598 22.323 108.954 55.91 149.606 75.008 106.24 49.869 221.542 1.894 229.683-15.616z" />
<glyph unicode="&#xe65b;" glyph-name="align-bottom" d="M665.6 396.8h-102.4v409.6h-102.4v-409.6h-102.4l153.6-153.6 153.6 153.6zM890.88 192h-757.76c-28.262 0-30.72-22.886-30.72-51.2s2.458-51.2 30.72-51.2h757.76c28.262 0 30.72 22.886 30.72 51.2s-2.458 51.2-30.72 51.2z" />
<glyph unicode="&#xe65c;" glyph-name="align-horizontal-middle" d="M409.6 448l-153.6 153.6v-102.4h-204.8v-102.4h204.8v-102.4l153.6 153.6zM768 294.4v102.4h204.8v102.4h-204.8v102.4l-153.6-153.6 153.6-153.6zM512 38.4c28.314 0 51.2 2.509 51.2 30.72v757.76c0 28.314-22.886 30.72-51.2 30.72-28.262 0-51.2-2.406-51.2-30.72v-757.76c0-28.211 22.938-30.72 51.2-30.72z" />
<glyph unicode="&#xe65d;" glyph-name="align-left" d="M307.2 448l153.6-153.6v102.4h409.6v102.4h-409.6v102.4l-153.6-153.6zM204.8 857.6c-28.314 0-51.2-2.406-51.2-30.72v-757.76c0-28.211 22.886-30.72 51.2-30.72 28.262 0 51.2 2.509 51.2 30.72v757.76c0 28.314-22.938 30.72-51.2 30.72z" />
<glyph unicode="&#xe65e;" glyph-name="align-right" d="M563.2 601.6v-102.4h-409.6v-102.4h409.6v-102.4l153.6 153.6-153.6 153.6zM768 826.88v-757.76c0-28.211 22.938-30.72 51.2-30.72 28.314 0 51.2 2.509 51.2 30.72v757.76c0 28.314-22.886 30.72-51.2 30.72-28.262 0-51.2-2.406-51.2-30.72z" />
<glyph unicode="&#xe65f;" glyph-name="align-top" d="M512 652.8l-153.6-153.6h102.4v-409.6h102.4v409.6h102.4l-153.6 153.6zM921.6 755.2c0 28.314-2.458 51.2-30.72 51.2h-757.76c-28.262 0-30.72-22.886-30.72-51.2s2.458-51.2 30.72-51.2h757.76c28.262 0 30.72 22.886 30.72 51.2z" />
<glyph unicode="&#xe660;" glyph-name="align-vertical-middle" d="M512 345.6l-153.6-153.6h102.4v-204.8h102.4v204.8h102.4l-153.6 153.6zM665.6 704h-102.4v204.8h-102.4v-204.8h-102.4l153.6-153.6 153.6 153.6zM921.6 448c0 28.314-2.458 51.2-30.72 51.2h-757.76c-28.262 0-30.72-22.886-30.72-51.2 0-28.211 2.458-51.2 30.72-51.2h757.76c28.262 0 30.72 22.989 30.72 51.2z" />
<glyph unicode="&#xe661;" glyph-name="archive" d="M715.827 857.6h-407.706c0 0-50.995 0-50.995-51.2h509.696c0 51.2-50.995 51.2-50.995 51.2zM868.762 704c0 51.2-50.944 51.2-50.944 51.2h-611.635c0 0-50.944 0-50.944-51.2v-51.2h713.523v51.2zM970.65 652.8c-30.106 30.31-30.106 30.31-30.106 30.31v-81.51h-857.088v81.51c0 0 0 0-30.157-30.31s-51.763-38.4-39.629-102.4c12.083-63.795 70.605-413.491 79.309-460.8 9.523-51.917 62.31-51.2 62.31-51.2h713.523c0 0 52.736-0.717 62.31 51.2 8.704 47.309 67.174 397.005 79.309 460.8 12.032 64-9.574 72.090-39.782 102.4zM716.8 345.754c0-28.365-22.989-51.354-51.354-51.354h-306.893c-28.365 0-51.354 22.989-51.354 51.354v102.246h51.2v-102.4h307.2v102.4h51.2v-102.246z" />
<glyph unicode="&#xe662;" glyph-name="area-graph" d="M1024 857.6v-819.2h-1007.616c-16.282 0-21.299 10.701-11.059 23.808l228.813 294.298c10.189 13.107 28.314 14.49 40.397 3.174l72.653-68.301c12.032-11.315 29.286-9.114 38.246 4.915l156.006 242.688c8.96 13.978 26.061 15.974 37.939 4.608l111.155-107.315c11.878-11.52 28.621-9.216 37.069 5.12l262.81 398.592c8.499 14.438 20.787 17.613 33.587 17.613z" />
<glyph unicode="&#xe663;" glyph-name="arrow-bold-down" d="M128 448h179.2v358.4h409.6v-358.4h179.2l-384-384-384 384z" />
<glyph unicode="&#xe664;" glyph-name="arrow-bold-left" d="M512 832v-179.2h358.4v-409.6h-358.4v-179.2l-384 384 384 384z" />
<glyph unicode="&#xe665;" glyph-name="arrow-bold-right" d="M896 448l-384-384v179.2h-358.4v409.6h358.4v179.2l384-384z" />
<glyph unicode="&#xe666;" glyph-name="arrow-bold-up" d="M512 832l384-384h-179.2v-358.4h-409.6v358.4h-179.2l384 384z" />
<glyph unicode="&#xe667;" glyph-name="arrow-down" d="M512 64l-332.8 332.8h179.2v409.6h307.2v-409.6h179.2l-332.8-332.8z" />
<glyph unicode="&#xe668;" glyph-name="arrow-left" d="M128 448l332.8 332.8v-179.2h409.6v-307.2h-409.6v-179.2l-332.8 332.8z" />
<glyph unicode="&#xe669;" glyph-name="arrow-long-down" d="M512-25.6l-281.6 268.8h179.2v665.6h204.8v-665.6h179.2l-281.6-268.8z" />
<glyph unicode="&#xe66a;" glyph-name="arrow-long-left" d="M38.4 448l268.8 281.6v-179.2h665.6v-204.8h-665.6v-179.2l-268.8 281.6z" />
<glyph unicode="&#xe66b;" glyph-name="arrow-long-right" d="M716.8 166.4v179.2h-665.6v204.8h665.6v179.2l268.8-281.6-268.8-281.6z" />
<glyph unicode="&#xe66c;" glyph-name="arrow-long-up" d="M512 921.6l281.6-268.8h-179.2v-665.6h-204.8v665.6h-179.2l281.6 268.8z" />
<glyph unicode="&#xe66d;" glyph-name="arrow-right" d="M563.2 115.2v179.2h-409.6v307.2h409.6v179.2l332.8-332.8-332.8-332.8z" />
<glyph unicode="&#xe66e;" glyph-name="arrow-up" d="M512 832l332.8-332.8h-179.2v-409.6h-307.2v409.6h-179.2l332.8 332.8z" />
<glyph unicode="&#xe66f;" glyph-name="arrow-with-circle-down" d="M512 939.52c-271.514 0-491.571-220.058-491.571-491.52 0-271.514 220.058-491.571 491.571-491.571 271.411 0 491.52 220.058 491.52 491.571 0 271.462-220.109 491.52-491.52 491.52zM511.949 58.88c-214.886 0-389.12 174.182-389.12 389.12s174.182 389.12 389.12 389.12 389.171-174.234 389.171-389.12-174.285-389.12-389.171-389.12zM614.4 652.8h-204.8v-204.8h-128l230.4-230.4 230.4 230.4h-128v204.8z" />
<glyph unicode="&#xe670;" glyph-name="arrow-with-circle-left" d="M512 939.52c-271.514 0-491.571-220.058-491.571-491.52 0-271.514 220.058-491.571 491.571-491.571 271.411 0 491.52 220.058 491.52 491.571 0 271.462-220.109 491.52-491.52 491.52zM511.949 58.88c-214.886 0-389.12 174.182-389.12 389.12s174.182 389.12 389.12 389.12 389.171-174.234 389.171-389.12-174.285-389.12-389.171-389.12zM512 678.4l-230.4-230.4 230.4-230.4v128h204.8v204.8h-204.8v128z" />
<glyph unicode="&#xe671;" glyph-name="arrow-with-circle-right" d="M512 939.52c-271.514 0-491.571-220.058-491.571-491.52 0-271.514 220.058-491.571 491.571-491.571 271.411 0 491.52 220.058 491.52 491.571 0 271.462-220.109 491.52-491.52 491.52zM511.949 58.88c-214.886 0-389.12 174.182-389.12 389.12s174.182 389.12 389.12 389.12 389.171-174.234 389.171-389.12-174.285-389.12-389.171-389.12zM512 550.4h-204.8v-204.8h204.8v-128l230.4 230.4-230.4 230.4v-128z" />
<glyph unicode="&#xe672;" glyph-name="arrow-with-circle-up" d="M512 939.52c-271.514 0-491.571-220.058-491.571-491.52 0-271.514 220.058-491.571 491.571-491.571 271.411 0 491.52 220.058 491.52 491.571 0 271.462-220.109 491.52-491.52 491.52zM511.949 58.88c-214.886 0-389.12 174.182-389.12 389.12s174.182 389.12 389.12 389.12 389.171-174.234 389.171-389.12-174.285-389.12-389.171-389.12zM512 678.4l230.4-230.4h-128v-204.8h-204.8v204.8h-128l230.4 230.4z" />
<glyph unicode="&#xe673;" glyph-name="attachment" d="M286.822-53.76c-66.202 0-128.205 28.416-172.954 73.728-86.784 87.859-110.95 241.203 10.701 364.339 71.219 72.090 356.659 361.114 499.098 505.344 50.586 51.2 114.944 71.014 176.538 54.272 60.57-16.384 110.131-66.611 126.362-127.898 16.486-62.464-3.021-127.642-53.555-178.842l-477.338-483.328c-27.238-27.597-58.061-43.93-88.986-47.206-30.669-3.277-59.904 6.656-80.384 27.392-37.069 37.683-42.394 108.39 19.354 170.854l335.258 339.456c13.773 13.926 36.096 13.926 49.869 0s13.773-36.557 0-50.483l-335.309-339.507c-28.979-29.286-31.642-57.293-19.302-69.837 5.427-5.427 13.619-7.936 23.091-6.861 14.49 1.485 31.027 11.059 46.541 26.675l477.338 483.277c32.768 33.178 45.312 72.192 35.328 109.824-9.83 37.12-39.834 67.482-76.442 77.466-37.171 10.086-75.776-2.662-108.544-35.84-142.438-144.282-427.827-433.254-499.098-505.344-92.979-94.157-70.707-202.547-10.701-263.322 60.058-60.774 167.014-83.405 260.045 10.854l499.098 505.344c13.773 13.926 36.096 13.926 49.869 0s13.773-36.557 0-50.534l-499.098-505.344c-58.829-59.494-124.723-84.48-186.778-84.48z" />
<glyph unicode="&#xe674;" glyph-name="awareness-ribbon" d="M848.589 123.494c-38.758 53.811-145.971 195.789-233.984 312.627 35.635 51.149 64.051 92.928 77.056 114.79 79.104 132.813 44.749 218.112 1.126 290.304-43.725 72.243-50.637 113.971-180.787 113.971-130.202 0-137.114-41.728-180.787-114.022-43.725-72.192-78.029-157.491 1.075-290.304 13.005-21.811 41.421-63.642 77.107-114.79-88.064-116.787-195.277-258.816-234.035-312.627-9.011-12.493-8.192-33.997 0.461-55.398 6.656-16.486 32.256-90.214 38.502-105.677 7.987-19.917 33.997-34.304 55.398-4.71 12.339 17.101 132.198 180.48 242.278 333.926 110.029-153.395 229.939-316.826 242.278-333.926 21.35-29.594 47.411-15.206 55.398 4.71 6.246 15.514 31.846 89.19 38.502 105.677 8.55 21.453 9.421 42.957 0.41 55.45zM493.261 598.374c-54.682 75.981-93.798 164.403-93.798 164.403s21.504 38.81 112.538 38.81c91.034 0 112.538-38.81 112.538-38.81s-39.219-88.422-93.85-164.403c-4.506-6.195-11.162-15.206-18.688-25.446-7.629 10.24-14.285 19.251-18.739 25.446z" />
<glyph unicode="&#xe675;" glyph-name="back" d="M972.8 601.6v-307.2c0-56.474-45.875-102.4-102.4-102.4h-716.8v153.6h665.6v204.8h-563.2v-102.4l-204.8 179.2 204.8 179.2v-102.4h614.4c56.525 0 102.4-45.875 102.4-102.4z" />
<glyph unicode="&#xe676;" glyph-name="back-in-time" d="M563.2 867.891c-227.584 0-412.723-182.374-418.253-409.395v-10.496h-121.446l184.013-199.373 178.893 199.373h-136.806v10.496c5.478 169.114 143.77 304.384 313.6 304.384 173.363 0 313.907-141.005 313.907-314.88s-140.544-314.88-313.907-314.88c-69.478 0-133.683 22.784-185.702 61.082l-71.987-77.005c71.066-55.706 160.512-88.986 257.69-88.986 231.168 0 418.509 187.904 418.509 419.789s-187.341 419.891-418.509 419.891zM512 704v-256c0-6.656 1.382-13.312 3.942-19.558 2.611-6.246 6.349-11.93 11.059-16.64l163.84-163.84c14.49 9.37 28.16 19.917 40.294 32.154l-116.736 116.685v307.2h-102.4z" />
</font>
</defs>
</svg>
